<svg xmlns="http://www.w3.org/2000/svg" width="800" height="800" viewBox="0 0 800 800" version="1.1"><path d="M 400 103 L 400 147 510.572 147 L 621.144 147 620.545 152.250 C 620.216 155.137, 615.909 202.950, 610.974 258.500 C 586.697 531.810, 580.753 596.534, 579.885 597.071 C 579.366 597.392, 538.567 608.835, 489.221 622.500 L 399.500 647.345 399.770 693.113 L 400.039 738.881 404.770 737.492 C 407.371 736.728, 456.750 723.020, 514.500 707.031 C 643.779 671.236, 632.866 674.476, 633.433 671.725 C 633.838 669.762, 688.084 61.647, 688.024 59.750 C 688.011 59.337, 623.200 59, 544 59 L 400 59 400 103 M 186 235.250 C 186 235.662, 234.037 235.893, 292.750 235.762 C 351.462 235.631, 382.400 235.407, 361.500 235.263 C 261.630 234.577, 186 234.571, 186 235.250 M 399.770 281 L 399.500 326.001 457.678 326 L 515.856 326 516.447 320.750 C 516.932 316.433, 524 237.451, 524 236.340 C 524 236.153, 496.109 236, 462.020 236 L 400.040 236 399.770 281 M 300.750 414.750 L 400 415.010 400 485.005 C 400 523.502, 400.209 555, 400.464 555 C 401.410 555, 497.444 528.889, 497.797 528.536 C 498.203 528.131, 507.949 421.142, 507.980 416.750 L 508 414 354.750 414.245 C 237.244 414.433, 224.649 414.551, 300.750 414.750" stroke="none" fill="#2965f1" fill-rule="evenodd"/><path d="M 400 191.500 L 400 235 462.567 235 C 521.672 235, 525.108 235.097, 524.654 236.750 C 524.390 237.713, 522.466 258.188, 520.379 282.250 L 516.584 326 458.292 326 L 400 326 400 370 L 400 414 454.614 414 L 509.227 414 508.644 418.250 C 508.324 420.587, 505.961 446.350, 503.393 475.500 C 500.825 504.650, 498.571 528.678, 498.383 528.896 C 498.195 529.114, 476.095 535.215, 449.271 542.455 L 400.500 555.618 400.240 601.141 L 399.980 646.663 489.699 621.789 C 539.044 608.109, 579.627 596.706, 579.883 596.450 C 580.140 596.194, 584.964 544.350, 590.604 481.242 C 596.244 418.134, 605.165 318.316, 610.429 259.425 C 615.693 200.534, 620 151.371, 620 150.175 L 620 148 510 148 L 400 148 400 191.500" stroke="none" fill="#ffffff" fill-rule="evenodd"/><path d="M 179.071 150.750 C 179.110 152.813, 180.801 172.500, 182.829 194.500 L 186.517 234.500 336.009 235.238 C 418.229 235.643, 494.275 235.858, 505 235.715 C 515.725 235.572, 496.262 235.353, 461.750 235.228 L 399 235 399 191.500 L 399 148 509.430 148 L 619.861 148 620.294 150.250 C 620.666 152.179, 620.747 152.108, 620.864 149.750 L 621 147 400 147 L 179 147 179.071 150.750 M 194.964 327.750 C 194.945 328.712, 196.601 348.512, 198.646 371.750 L 202.363 414 300.681 414 L 399 414 399 370 L 399 326 297 326 C 200.537 326, 194.998 326.095, 194.964 327.750 M 206.881 458.453 C 206.232 459.101, 218.526 595.859, 219.303 596.636 C 219.658 596.992, 259.416 608.239, 307.653 621.631 C 355.890 635.022, 396.177 646.239, 397.179 646.557 C 398.922 647.110, 399 645.193, 399 601.651 C 399 566.199, 399.276 556.055, 400.250 555.662 C 401.018 555.353, 400.845 555.127, 399.804 555.079 C 398.204 555.004, 301.850 529.197, 301.401 528.722 C 301.214 528.525, 295 460.585, 295 458.740 C 295 457.959, 207.659 457.674, 206.881 458.453" stroke="none" fill="#ebebeb" fill-rule="evenodd"/><path d="M 399.459 191.500 C 399.460 215.700, 399.590 225.457, 399.749 213.182 C 399.908 200.907, 399.908 181.107, 399.749 169.182 C 399.589 157.257, 399.459 167.300, 399.459 191.500 M 399.460 370 C 399.460 394.475, 399.590 404.488, 399.749 392.250 C 399.908 380.013, 399.908 359.988, 399.749 347.750 C 399.590 335.513, 399.460 345.525, 399.460 370 M 399.461 601.500 C 399.461 626.800, 399.591 637.007, 399.749 624.181 C 399.908 611.356, 399.907 590.656, 399.749 578.181 C 399.590 565.707, 399.461 576.200, 399.461 601.500" stroke="none" fill="#f4f4f4" fill-rule="evenodd"/><path d="M 47 0.592 C 47 5.839, 111.258 719.639, 111.772 720.106 C 112.546 720.808, 393.729 799.034, 398.038 799.746 C 400.330 800.124, 686.520 721.570, 688.187 720.104 C 688.565 719.772, 703.082 560.200, 720.447 365.500 C 737.813 170.800, 752.299 8.912, 752.639 5.750 L 753.258 0 400.129 0 C 205.908 0, 47 0.266, 47 0.592 M 400 103 L 400 147 288.966 147 L 177.931 147 178.505 151.750 C 179.216 157.637, 186 232.599, 186 234.569 C 186 235.801, 200.849 236, 293.010 236 L 400.021 236 399.760 280.750 L 399.500 325.500 296.657 325.755 L 193.814 326.009 194.413 330.755 C 194.879 334.441, 202 413.195, 202 414.660 C 202 414.847, 246.550 415, 301 415 L 400 415 400 485.067 C 400 551.335, 399.905 555.106, 398.250 554.601 C 397.288 554.307, 375.350 548.367, 349.500 541.400 C 323.650 534.433, 302.264 528.367, 301.975 527.921 C 301.686 527.474, 300.187 512.347, 298.645 494.304 C 297.102 476.262, 295.621 460.713, 295.353 459.750 C 294.898 458.117, 291.897 458, 250.433 458 C 225.995 458, 206 458.350, 206 458.778 C 206 460.125, 218.003 594.429, 218.258 595.928 C 218.427 596.925, 245.804 604.942, 309 622.500 L 399.500 647.643 400 693.136 L 400.500 738.628 514.500 706.985 C 577.200 689.581, 629.511 675.010, 630.748 674.604 C 631.984 674.198, 633.197 672.884, 633.444 671.683 C 633.842 669.744, 688.083 61.610, 688.024 59.750 C 688.011 59.337, 623.200 59, 544 59 L 400 59 400 103" stroke="none" fill="#2652e8" fill-rule="evenodd"/></svg>