<svg xmlns="http://www.w3.org/2000/svg" width="2560" height="962" viewBox="0 0 2560 962" version="1.1"><path d="M 1209 2.665 C 1137.541 7.672, 1075.982 21.973, 1015.751 47.560 C 907.807 93.417, 815.077 175.905, 749.955 284 C 682.487 395.989, 662.358 524.799, 692.990 648.528 C 706.883 704.647, 730.676 752.945, 766.623 798 C 778.818 813.285, 807.542 842.539, 822.500 854.910 C 892.558 912.848, 968.214 944.893, 1058 954.659 C 1078.005 956.835, 1129.557 957.131, 1149 955.183 C 1245.803 945.479, 1323.063 918.987, 1395.500 870.660 C 1468.851 821.722, 1536.256 746.827, 1577.892 668 C 1581.233 661.675, 1583.975 656.725, 1583.985 657 C 1584.056 658.970, 1596.730 694.627, 1600.513 703.500 C 1619.504 748.050, 1646.038 787.574, 1680.995 823.382 C 1762.911 907.292, 1868.577 952.735, 1995.987 958.849 C 2005.606 959.311, 2014.156 959.536, 2014.987 959.350 C 2015.819 959.164, 2029.100 957.877, 2044.500 956.491 C 2094.609 951.981, 2109.216 949.739, 2142 941.527 C 2203.013 926.245, 2260.139 902.033, 2311.500 869.688 C 2346.841 847.432, 2377.009 823.115, 2409.050 791.059 C 2438.703 761.392, 2458.352 737.880, 2478.882 707.500 C 2523.712 641.160, 2548.480 573.721, 2557.687 492.932 C 2560.430 468.862, 2560.180 408.465, 2557.225 381.398 C 2548.128 298.073, 2521.593 232.212, 2472.688 171.573 C 2462.019 158.344, 2436.438 132.302, 2422 119.971 C 2359.339 66.453, 2291.414 33.862, 2214.661 20.486 C 2189.070 16.027, 2174.883 14.820, 2141.700 14.278 C 2099.825 13.595, 2071.127 15.740, 2030.500 22.590 C 1941.094 37.664, 1866.799 65.694, 1803.526 108.224 C 1746.998 146.219, 1695.215 199.468, 1652.522 263.500 C 1636.130 288.085, 1626.306 305.077, 1614.940 328.500 C 1606.221 346.469, 1595.255 373.045, 1590.910 386.741 L 1588.612 393.981 1383.556 394.241 L 1178.500 394.500 1172.797 397.300 C 1163.366 401.932, 1159.507 407.281, 1145.740 434.809 C 1128.742 468.799, 1105.429 519.383, 1094.332 546.353 C 1085.397 568.069, 1088.037 580.177, 1103 586.112 C 1105.895 587.260, 1128.072 587.586, 1231.358 588 L 1356.216 588.500 1344.497 605 C 1328.233 627.899, 1319.884 637.950, 1306.039 651.299 C 1268.864 687.140, 1227.439 708.098, 1178.790 715.678 C 1163.153 718.115, 1128.050 718.097, 1112 715.643 C 1067.789 708.886, 1031.581 690.946, 1001.954 661.118 C 977.641 636.641, 961.743 609.492, 952.075 575.945 C 940.820 536.892, 941.368 486.521, 953.554 440.115 C 962.499 406.048, 979.183 373.043, 1001.633 345 C 1010.907 333.415, 1031.319 313.182, 1043.777 303.225 C 1070.630 281.762, 1105.214 262.428, 1133.500 253.066 C 1158.018 244.951, 1175.934 242, 1200.689 242 C 1233.295 242, 1266.094 250.046, 1297.500 265.750 C 1317.968 275.985, 1330.418 285.946, 1351.346 308.832 C 1366.093 324.959, 1370.019 328, 1376.092 328 C 1377.901 328, 1412.033 319.392, 1451.941 308.871 C 1491.848 298.350, 1542.500 285.079, 1564.500 279.381 C 1606.025 268.625, 1610.592 267.166, 1613.830 263.623 C 1617.412 259.704, 1617.354 257.541, 1613.435 248.765 C 1576.345 165.702, 1527.279 108.561, 1453.901 62.976 C 1397.015 27.636, 1336.279 8.254, 1266 3.012 C 1253.711 2.095, 1220.053 1.890, 1209 2.665 M 2084 243.611 C 2036.534 249.438, 1993.883 263.759, 1956.793 286.324 C 1895.831 323.412, 1854.468 382.395, 1835.473 459.327 C 1830.062 481.244, 1828.705 492.105, 1828.705 513.500 C 1828.705 547.896, 1835.384 576.888, 1850.085 606.311 C 1877.422 661.021, 1925.193 698.562, 1987 713.905 C 2041.878 727.527, 2095.490 720.953, 2149.112 694.025 C 2198.213 669.368, 2238.617 634.478, 2265.691 593.357 C 2297.423 545.162, 2313.288 481.380, 2307.072 427 C 2302.474 386.782, 2285.117 345.795, 2259.854 315.500 C 2229.239 278.787, 2187.023 254.644, 2138.219 245.937 C 2126.880 243.915, 2093.274 242.473, 2084 243.611 M 221.500 247.417 C 217.618 249.150, 215.747 251.248, 200.565 270.887 C 186.503 289.077, 185.771 291.004, 192.500 292.109 C 194.700 292.470, 297.639 292.970, 421.254 293.220 C 631.060 293.646, 646.257 293.563, 649.754 291.979 C 654.506 289.827, 655 289.240, 665.720 273 C 679.240 252.519, 680.327 250.480, 679.029 248.053 L 677.930 246 451.215 246.039 C 264.024 246.071, 223.977 246.312, 221.500 247.417 M 34.024 361.824 C 30.058 363.344, 27.861 365.703, 14.749 382.520 C 3.429 397.038, 0.014 402.088, 0.225 404 L 0.500 406.500 299 406.191 C 581.648 405.897, 597.686 405.788, 601 404.120 C 604.320 402.450, 604.793 401.514, 610.203 385.930 C 616.545 367.660, 617.037 363.320, 613 361.288 C 611.008 360.285, 552.372 360.038, 324.500 360.069 C 56.794 360.106, 38.214 360.218, 34.024 361.824 M 327.450 476.407 C 322.927 478.377, 320.161 482.193, 310.036 500.435 C 300.751 517.163, 299.835 520.241, 303.801 521.390 C 304.736 521.661, 367.409 522.197, 443.076 522.582 L 580.653 523.282 583.863 520.391 L 587.072 517.500 588.558 500.500 C 589.375 491.150, 589.773 482.263, 589.443 480.751 C 588.104 474.629, 596.587 474.996, 457.527 475.039 C 354.175 475.071, 329.932 475.326, 327.450 476.407" stroke="none" fill="#00acd7" fill-rule="evenodd"/><path d="" stroke="none" fill="#04acdc" fill-rule="evenodd"/><path d="" stroke="none" fill="#04acd4" fill-rule="evenodd"/></svg>