<svg xmlns="http://www.w3.org/2000/svg" width="2048" height="2048" viewBox="0 0 2048 2048" version="1.1"><path d="M 568.351 709.250 C 568.669 711.587, 579.764 834.100, 593.007 981.500 C 606.249 1128.900, 617.299 1250.513, 617.561 1251.750 L 618.038 1254 820.519 1254 L 1023 1254 1023 1163.500 L 1023 1073 903.594 1073 L 784.188 1073 783.590 1068.250 C 783.262 1065.638, 779.628 1025.700, 775.516 979.500 C 771.403 933.300, 767.777 893.587, 767.458 891.250 L 766.877 887 894.939 887 L 1023 887 1023 796 L 1023 705 795.386 705 L 567.773 705 568.351 709.250 M 1137.250 705.750 C 1199.812 705.892, 1302.187 705.892, 1364.750 705.750 C 1427.312 705.608, 1376.125 705.491, 1251 705.491 C 1125.875 705.491, 1074.687 705.608, 1137.250 705.750 M 1461 884.998 C 1461 885.658, 1386.918 886.082, 1242.250 886.250 L 1023.500 886.505 1242.750 886.752 C 1437.082 886.972, 1462 886.830, 1462 885.500 C 1462 884.675, 1461.775 884, 1461.500 884 C 1461.225 884, 1461 884.449, 1461 884.998 M 625.986 1346.750 C 625.943 1351.957, 651.261 1629.600, 651.826 1630.125 C 652.197 1630.469, 735.300 1653.821, 836.500 1682.019 C 937.700 1710.217, 1021.063 1733.497, 1021.750 1733.751 C 1022.744 1734.119, 1022.999 1714.825, 1022.994 1639.357 L 1022.988 1544.500 922.244 1517.599 C 866.835 1502.804, 821.324 1490.553, 821.109 1490.375 C 820.793 1490.114, 808.129 1350.575, 808.029 1346.250 C 808.006 1345.259, 789.118 1345, 717 1345 C 631.005 1345, 625.999 1345.096, 625.986 1346.750" stroke="none" fill="#ebebeb" fill-rule="evenodd"/><path d="M 1024 614.500 L 1024 705 1251 705 L 1478 705 1478 707.651 C 1478 709.108, 1474.400 749.147, 1470 796.624 C 1465.600 844.102, 1462 883.859, 1462 884.973 L 1462 887 1243 887 L 1024 887 1024 979.496 L 1024 1071.992 903.750 1072.250 C 837.612 1072.392, 932.337 1072.619, 1114.250 1072.754 C 1428.498 1072.988, 1444.999 1073.087, 1444.981 1074.750 C 1444.936 1078.885, 1395.249 1630.079, 1394.893 1630.391 C 1394.677 1630.581, 1311.128 1653.858, 1209.229 1682.118 L 1023.958 1733.500 1023.989 1827.427 C 1024.006 1879.086, 1024.128 1921.449, 1024.260 1921.567 C 1024.558 1921.831, 1503.091 1788.242, 1503.573 1787.760 C 1503.765 1787.568, 1529.142 1505.506, 1559.967 1160.955 C 1590.791 816.405, 1616.286 532.138, 1616.621 529.250 L 1617.230 524 1320.615 524 L 1024 524 1024 614.500 M 1023.500 1399.367 L 1023.500 1544.734 1030 1542.949 C 1033.575 1541.968, 1078.800 1529.835, 1130.500 1515.987 C 1182.200 1502.139, 1224.841 1490.488, 1225.259 1490.096 C 1225.825 1489.564, 1247 1260.604, 1247 1255.019 C 1247 1254.333, 1210.486 1254, 1135.250 1254 L 1023.500 1254 1023.500 1399.367" stroke="none" fill="#f16529" fill-rule="evenodd"/><path d="M 298.700 402.750 C 298.251 403.555, 298.460 406.990, 299.535 416.500 C 299.908 419.800, 300.352 424.525, 300.522 427 C 300.980 433.672, 301.907 444.821, 302.478 450.500 C 302.754 453.250, 303.219 458.200, 303.510 461.500 C 303.801 464.800, 304.263 469.975, 304.537 473 C 304.810 476.025, 305.257 481.200, 305.529 484.500 C 305.801 487.800, 306.238 492.525, 306.500 495 C 306.761 497.475, 307.188 502.425, 307.449 506 C 307.873 511.809, 308.673 520.953, 309.506 529.500 C 309.666 531.150, 310.087 535.875, 310.440 540 C 310.793 544.125, 311.238 549.075, 311.428 551 C 311.619 552.925, 312.065 558.325, 312.421 563 C 312.777 567.675, 313.280 573.075, 313.541 575 C 313.801 576.925, 314.228 581.650, 314.489 585.500 C 314.750 589.350, 315.204 594.750, 315.498 597.500 C 315.791 600.250, 316.271 604.750, 316.564 607.500 C 317.181 613.293, 317.592 618.359, 318.349 629.500 C 318.647 633.900, 319.124 639.300, 319.407 641.500 C 319.691 643.700, 320.190 648.650, 320.517 652.500 C 320.844 656.350, 321.308 661.525, 321.549 664 C 321.789 666.475, 322.243 671.425, 322.557 675 C 322.870 678.575, 323.285 683.300, 323.478 685.500 C 323.671 687.700, 324.099 692.875, 324.428 697 C 324.757 701.125, 325.278 706.525, 325.584 709 C 326.130 713.401, 326.287 715.178, 327.390 729.500 C 327.687 733.350, 328.138 738.525, 328.394 741 C 328.649 743.475, 329.127 748.650, 329.456 752.500 C 329.785 756.350, 330.254 761.525, 330.498 764 C 330.742 766.475, 331.185 771.425, 331.482 775 C 331.780 778.575, 332.230 783.525, 332.484 786 C 332.738 788.475, 333.169 793.875, 333.441 798 C 333.714 802.125, 334.220 807.525, 334.566 810 C 334.912 812.475, 335.327 816.525, 335.488 819 C 335.861 824.730, 336.862 837.168, 337.418 843 C 337.654 845.475, 338.150 851.301, 338.519 855.947 C 338.889 860.593, 339.361 865.278, 339.569 866.360 C 339.777 867.441, 340.187 871.965, 340.480 876.413 C 340.773 880.861, 341.215 886.525, 341.463 889 C 341.711 891.475, 342.184 896.650, 342.515 900.500 C 342.845 904.350, 343.296 909.075, 343.516 911 C 343.736 912.925, 344.181 917.875, 344.504 922 C 344.827 926.125, 345.266 931.300, 345.480 933.500 C 345.693 935.700, 346.130 940.200, 346.451 943.500 C 346.772 946.800, 347.240 952.425, 347.491 956 C 347.742 959.575, 348.239 964.750, 348.595 967.500 C 348.952 970.250, 349.375 974.300, 349.537 976.500 C 350.091 984.038, 351.178 997.500, 351.475 1000.500 C 351.639 1002.150, 352.056 1006.650, 352.401 1010.500 C 352.747 1014.350, 353.248 1019.750, 353.514 1022.500 C 353.780 1025.250, 354.236 1030.425, 354.526 1034 C 354.817 1037.575, 355.239 1042.300, 355.463 1044.500 C 355.687 1046.700, 356.130 1052.100, 356.447 1056.500 C 356.764 1060.900, 357.286 1066.525, 357.608 1069 C 357.929 1071.475, 358.335 1075.525, 358.511 1078 C 358.989 1084.737, 359.913 1095.858, 360.463 1101.500 C 360.731 1104.250, 361.229 1109.650, 361.571 1113.500 C 361.912 1117.350, 362.339 1122.075, 362.521 1124 C 362.702 1125.925, 363.127 1131.395, 363.464 1136.155 C 363.802 1140.916, 364.285 1145.866, 364.538 1147.155 C 364.790 1148.445, 365.217 1152.875, 365.487 1157 C 365.756 1161.125, 366.213 1166.975, 366.502 1170 C 366.792 1173.025, 367.229 1177.975, 367.473 1181 C 367.718 1184.025, 368.176 1188.975, 368.491 1192 C 369.211 1198.916, 369.801 1205.561, 370.488 1214.500 C 370.784 1218.350, 371.283 1223.691, 371.596 1226.369 C 371.909 1229.047, 372.329 1233.322, 372.529 1235.869 C 373.550 1248.861, 374.064 1254.698, 374.556 1258.890 C 375.095 1263.490, 375.300 1265.836, 376.393 1280 C 376.711 1284.125, 377.175 1289.525, 377.423 1292 C 377.672 1294.475, 378.161 1299.650, 378.510 1303.500 C 378.859 1307.350, 379.324 1312.300, 379.543 1314.500 C 379.763 1316.700, 380.205 1321.650, 380.527 1325.500 C 380.848 1329.350, 381.294 1334.525, 381.517 1337 C 381.740 1339.475, 382.133 1344.425, 382.391 1348 C 382.649 1351.575, 383.178 1356.750, 383.567 1359.500 C 383.956 1362.250, 384.407 1366.525, 384.569 1369 C 385.484 1382.932, 386.678 1397.529, 387.597 1406 C 388.336 1412.820, 388.778 1417.525, 389.523 1426.500 C 389.842 1430.350, 390.275 1435.300, 390.485 1437.500 C 390.695 1439.700, 391.107 1444.875, 391.402 1449 C 391.697 1453.125, 392.158 1458.300, 392.427 1460.500 C 392.696 1462.700, 393.202 1468.100, 393.551 1472.500 C 393.899 1476.900, 394.320 1481.850, 394.486 1483.500 C 394.652 1485.150, 395.071 1490.100, 395.418 1494.500 C 396.068 1502.763, 396.663 1508.959, 397.614 1517.369 C 397.917 1520.047, 398.329 1524.322, 398.529 1526.869 C 398.730 1529.416, 399.141 1534.650, 399.444 1538.500 C 400.127 1547.170, 400.795 1554.831, 401.493 1562 C 402.509 1572.437, 403.152 1579.515, 403.492 1584 C 403.679 1586.475, 404.111 1591.200, 404.452 1594.500 C 404.792 1597.800, 405.272 1603.425, 405.518 1607 C 405.763 1610.575, 406.255 1615.750, 406.611 1618.500 C 406.966 1621.250, 407.386 1625.525, 407.544 1628 C 407.882 1633.305, 408.834 1644.647, 409.475 1651 C 409.724 1653.475, 410.175 1658.425, 410.477 1662 C 410.778 1665.575, 411.252 1670.975, 411.530 1674 C 411.808 1677.025, 412.278 1682.425, 412.574 1686 C 412.870 1689.575, 413.283 1694.075, 413.492 1696 C 413.700 1697.925, 414.130 1703.100, 414.447 1707.500 C 414.764 1711.900, 415.285 1717.525, 415.605 1720 C 415.924 1722.475, 416.317 1726.525, 416.478 1729 C 416.801 1733.976, 417.713 1744.788, 418.460 1752.500 C 418.727 1755.250, 419.184 1760.200, 419.475 1763.500 C 419.767 1766.800, 420.238 1771.975, 420.521 1775 C 420.804 1778.025, 421.244 1783.425, 421.500 1787 C 421.755 1790.575, 422.204 1795.750, 422.498 1798.500 C 423.692 1809.691, 424.075 1813.799, 424.502 1820 C 425.037 1827.796, 425.822 1836.856, 426.494 1843 C 426.765 1845.475, 427.221 1850.200, 427.508 1853.500 C 427.795 1856.800, 428.266 1861.975, 428.554 1865 C 428.842 1868.025, 429.271 1873.200, 429.508 1876.500 C 430.071 1884.338, 431.232 1885.140, 447.500 1888.917 C 449.700 1889.428, 453.975 1890.591, 457 1891.502 C 460.025 1892.413, 464.075 1893.542, 466 1894.009 C 473.950 1895.941, 478.612 1897.216, 480.500 1897.975 C 481.600 1898.417, 485.425 1899.543, 489 1900.477 C 492.575 1901.411, 498.650 1903.110, 502.500 1904.252 C 506.350 1905.395, 511.075 1906.674, 513 1907.095 C 519.040 1908.415, 525.422 1910.138, 527.500 1911.010 C 528.600 1911.472, 530.625 1912.082, 532 1912.365 C 535.762 1913.142, 543.239 1915.168, 545.500 1916.023 C 546.600 1916.439, 550.425 1917.543, 554 1918.477 C 557.575 1919.411, 563.650 1921.110, 567.500 1922.252 C 571.350 1923.395, 576.075 1924.674, 578 1925.095 C 583.712 1926.343, 590.360 1928.115, 592.500 1928.961 C 596.227 1930.433, 605.667 1933, 607.351 1933 C 608.273 1933, 609.809 1933.408, 610.764 1933.906 C 611.719 1934.404, 615.425 1935.569, 619 1936.494 C 628.162 1938.866, 638.623 1941.744, 647.865 1944.437 C 650.815 1945.297, 653.859 1946, 654.628 1946 C 655.398 1946, 656.809 1946.408, 657.764 1946.906 C 658.719 1947.404, 662.425 1948.569, 666 1949.493 C 669.575 1950.418, 675.650 1952.110, 679.500 1953.252 C 683.350 1954.395, 688.075 1955.674, 690 1956.095 C 696.040 1957.415, 702.422 1959.138, 704.500 1960.010 C 705.600 1960.472, 707.625 1961.082, 709 1961.365 C 712.762 1962.142, 720.239 1964.168, 722.500 1965.023 C 723.600 1965.439, 727.425 1966.543, 731 1967.477 C 734.575 1968.411, 740.650 1970.110, 744.500 1971.252 C 748.350 1972.395, 753.075 1973.674, 755 1974.095 C 760.712 1975.343, 767.360 1977.115, 769.500 1977.961 C 773.227 1979.433, 782.667 1982, 784.351 1982 C 785.273 1982, 786.809 1982.408, 787.764 1982.906 C 788.719 1983.404, 792.425 1984.569, 796 1985.494 C 805.162 1987.866, 815.623 1990.744, 824.865 1993.437 C 827.815 1994.297, 830.859 1995, 831.628 1995 C 832.398 1995, 833.809 1995.408, 834.764 1995.906 C 835.719 1996.404, 839.425 1997.569, 843 1998.493 C 846.575 1999.418, 852.650 2001.110, 856.500 2002.252 C 860.350 2003.395, 865.075 2004.674, 867 2005.095 C 873.040 2006.415, 879.422 2008.138, 881.500 2009.010 C 882.600 2009.472, 884.625 2010.082, 886 2010.365 C 889.762 2011.142, 897.239 2013.168, 899.500 2014.023 C 900.600 2014.439, 904.425 2015.543, 908 2016.477 C 911.575 2017.411, 917.650 2019.110, 921.500 2020.252 C 925.350 2021.395, 930.075 2022.674, 932 2023.095 C 937.712 2024.343, 944.360 2026.115, 946.500 2026.961 C 950.227 2028.433, 959.667 2031, 961.351 2031 C 962.273 2031, 963.809 2031.408, 964.764 2031.906 C 965.719 2032.404, 969.425 2033.569, 973 2034.494 C 982.162 2036.866, 992.623 2039.744, 1001.865 2042.437 C 1004.815 2043.297, 1008.051 2044, 1009.056 2044 C 1010.060 2044, 1011.124 2044.391, 1011.419 2044.869 C 1011.982 2045.779, 1018.725 2047.286, 1023 2047.457 C 1024.375 2047.511, 1027.525 2046.948, 1030 2046.204 C 1032.475 2045.460, 1036.975 2044.200, 1040 2043.404 C 1043.025 2042.608, 1046.175 2041.679, 1047 2041.339 C 1047.825 2041, 1049.175 2040.611, 1050 2040.474 C 1050.825 2040.338, 1055.775 2039.041, 1061 2037.592 C 1066.225 2036.143, 1074.100 2034.041, 1078.500 2032.921 C 1082.900 2031.801, 1087.400 2030.506, 1088.500 2030.044 C 1089.600 2029.582, 1093.650 2028.446, 1097.500 2027.520 C 1101.350 2026.595, 1105.400 2025.462, 1106.500 2025.004 C 1107.600 2024.546, 1110.300 2023.723, 1112.500 2023.176 C 1119.901 2021.334, 1128.488 2018.961, 1130 2018.339 C 1130.825 2018, 1132.175 2017.606, 1133 2017.464 C 1136.208 2016.911, 1151.606 2012.840, 1153.500 2012.044 C 1154.600 2011.582, 1158.650 2010.446, 1162.500 2009.520 C 1166.350 2008.595, 1170.400 2007.462, 1171.500 2007.004 C 1173.576 2006.139, 1180.654 2004.224, 1185 2003.351 C 1186.375 2003.075, 1188.400 2002.472, 1189.500 2002.010 C 1190.600 2001.548, 1193.300 2000.724, 1195.500 2000.177 C 1197.700 1999.631, 1203.775 1998.001, 1209 1996.555 C 1214.225 1995.110, 1222.100 1993.018, 1226.500 1991.906 C 1230.900 1990.794, 1235.400 1989.506, 1236.500 1989.044 C 1237.600 1988.582, 1241.650 1987.446, 1245.500 1986.520 C 1249.350 1985.595, 1253.400 1984.462, 1254.500 1984.004 C 1257.162 1982.895, 1264.707 1980.931, 1268.759 1980.293 C 1270.552 1980.010, 1272.266 1979.379, 1272.568 1978.890 C 1272.871 1978.400, 1274.141 1978, 1275.392 1978 C 1276.643 1978, 1277.976 1977.691, 1278.354 1977.313 C 1278.732 1976.935, 1279.819 1976.536, 1280.770 1976.426 C 1281.722 1976.316, 1286.775 1975.041, 1292 1973.592 C 1297.225 1972.143, 1305.100 1970.041, 1309.500 1968.921 C 1313.900 1967.801, 1318.400 1966.506, 1319.500 1966.044 C 1320.600 1965.582, 1324.650 1964.446, 1328.500 1963.520 C 1332.350 1962.595, 1336.400 1961.462, 1337.500 1961.004 C 1338.600 1960.546, 1341.300 1959.723, 1343.500 1959.176 C 1350.901 1957.334, 1359.488 1954.961, 1361 1954.339 C 1361.825 1954, 1363.175 1953.611, 1364 1953.474 C 1364.825 1953.338, 1369.775 1952.041, 1375 1950.592 C 1380.225 1949.143, 1388.100 1947.041, 1392.500 1945.921 C 1396.900 1944.801, 1401.400 1943.506, 1402.500 1943.044 C 1403.600 1942.582, 1407.650 1941.446, 1411.500 1940.520 C 1415.350 1939.595, 1419.400 1938.462, 1420.500 1938.004 C 1421.600 1937.546, 1424.300 1936.723, 1426.500 1936.176 C 1433.901 1934.334, 1442.488 1931.961, 1444 1931.339 C 1444.825 1931, 1446.175 1930.606, 1447 1930.464 C 1450.208 1929.911, 1465.606 1925.840, 1467.500 1925.044 C 1468.600 1924.582, 1472.650 1923.446, 1476.500 1922.520 C 1480.350 1921.595, 1484.400 1920.462, 1485.500 1920.004 C 1487.576 1919.139, 1494.654 1917.224, 1499 1916.351 C 1500.375 1916.075, 1502.400 1915.472, 1503.500 1915.010 C 1504.600 1914.548, 1507.300 1913.724, 1509.500 1913.177 C 1511.700 1912.631, 1517.775 1911.001, 1523 1909.555 C 1528.225 1908.110, 1536.100 1906.018, 1540.500 1904.906 C 1544.900 1903.794, 1549.400 1902.500, 1550.500 1902.029 C 1551.600 1901.558, 1555.875 1900.376, 1560 1899.401 C 1564.125 1898.427, 1567.927 1897.263, 1568.450 1896.815 C 1568.972 1896.367, 1570.158 1896, 1571.085 1896 C 1572.012 1896, 1575.185 1895.290, 1578.135 1894.422 C 1581.086 1893.554, 1585.300 1892.350, 1587.500 1891.745 C 1589.700 1891.140, 1591.942 1890.409, 1592.482 1890.120 C 1593.023 1889.831, 1594.148 1889.506, 1594.982 1889.397 C 1595.817 1889.289, 1601.338 1887.939, 1607.250 1886.398 C 1617.292 1883.781, 1618.007 1883.429, 1618.113 1881.048 C 1618.175 1879.647, 1618.353 1877.150, 1618.509 1875.500 C 1618.664 1873.850, 1619.084 1868.900, 1619.441 1864.500 C 1619.798 1860.100, 1620.291 1854.700, 1620.536 1852.500 C 1621.173 1846.792, 1622.972 1825.518, 1623.454 1818 C 1623.613 1815.525, 1624.033 1811.250, 1624.388 1808.500 C 1624.743 1805.750, 1625.257 1800.350, 1625.530 1796.500 C 1625.803 1792.650, 1626.240 1787.475, 1626.501 1785 C 1626.762 1782.525, 1627.198 1777.800, 1627.470 1774.500 C 1627.742 1771.200, 1628.196 1766.025, 1628.478 1763 C 1629.041 1756.968, 1629.687 1749.732, 1630.488 1740.500 C 1630.774 1737.200, 1631.253 1732.475, 1631.552 1730 C 1631.850 1727.525, 1632.342 1721.900, 1632.645 1717.500 C 1633.474 1705.436, 1633.849 1700.944, 1634.438 1696 C 1634.732 1693.525, 1635.243 1688.125, 1635.572 1684 C 1635.901 1679.875, 1636.329 1674.700, 1636.522 1672.500 C 1636.716 1670.300, 1637.141 1665.350, 1637.466 1661.500 C 1637.792 1657.650, 1638.237 1652.700, 1638.457 1650.500 C 1638.676 1648.300, 1639.136 1643.350, 1639.480 1639.500 C 1639.823 1635.650, 1640.331 1630.250, 1640.608 1627.500 C 1640.885 1624.750, 1641.342 1619.575, 1641.624 1616 C 1641.905 1612.425, 1642.280 1607.925, 1642.456 1606 C 1643.406 1595.606, 1644.137 1588.064, 1644.539 1584.500 C 1644.787 1582.300, 1645.242 1576.900, 1645.548 1572.500 C 1646.442 1559.682, 1646.797 1555.544, 1647.444 1550.369 C 1647.778 1547.691, 1648.257 1542.575, 1648.508 1539 C 1648.759 1535.425, 1649.213 1530.025, 1649.517 1527 C 1649.821 1523.975, 1650.258 1519.025, 1650.489 1516 C 1650.720 1512.975, 1651.146 1508.025, 1651.435 1505 C 1651.724 1501.975, 1652.199 1496.800, 1652.490 1493.500 C 1652.781 1490.200, 1653.246 1485.250, 1653.522 1482.500 C 1653.798 1479.750, 1654.289 1474.350, 1654.613 1470.500 C 1654.937 1466.650, 1655.334 1462.150, 1655.494 1460.500 C 1655.883 1456.509, 1657.003 1443.846, 1657.573 1437 C 1657.825 1433.975, 1658.261 1429.475, 1658.542 1427 C 1658.822 1424.525, 1659.262 1419.350, 1659.519 1415.500 C 1659.776 1411.650, 1660.198 1406.925, 1660.457 1405 C 1660.716 1403.075, 1661.178 1398.125, 1661.485 1394 C 1661.792 1389.875, 1662.251 1384.250, 1662.505 1381.500 C 1662.759 1378.750, 1663.238 1373.575, 1663.568 1370 C 1664.178 1363.406, 1664.894 1354.171, 1665.431 1346 C 1665.593 1343.525, 1666.044 1339.250, 1666.432 1336.500 C 1666.820 1333.750, 1667.348 1328.575, 1667.605 1325 C 1667.861 1321.425, 1668.257 1316.475, 1668.483 1314 C 1668.709 1311.525, 1669.135 1306.575, 1669.430 1303 C 1670.238 1293.176, 1670.848 1286.762, 1671.435 1281.896 C 1671.727 1279.478, 1672.246 1273.900, 1672.589 1269.500 C 1672.931 1265.100, 1673.348 1260.150, 1673.514 1258.500 C 1673.680 1256.850, 1674.102 1251.900, 1674.453 1247.500 C 1674.804 1243.100, 1675.291 1237.700, 1675.536 1235.500 C 1676.173 1229.792, 1677.972 1208.518, 1678.454 1201 C 1678.613 1198.525, 1679.033 1194.250, 1679.388 1191.500 C 1679.743 1188.750, 1680.257 1183.350, 1680.530 1179.500 C 1680.803 1175.650, 1681.240 1170.475, 1681.501 1168 C 1681.762 1165.525, 1682.198 1160.800, 1682.470 1157.500 C 1682.742 1154.200, 1683.196 1149.025, 1683.478 1146 C 1684.041 1139.968, 1684.687 1132.732, 1685.488 1123.500 C 1685.774 1120.200, 1686.253 1115.475, 1686.552 1113 C 1686.850 1110.525, 1687.342 1104.900, 1687.645 1100.500 C 1688.474 1088.436, 1688.849 1083.944, 1689.438 1079 C 1689.732 1076.525, 1690.243 1071.125, 1690.572 1067 C 1690.901 1062.875, 1691.329 1057.700, 1691.522 1055.500 C 1691.716 1053.300, 1692.141 1048.350, 1692.466 1044.500 C 1692.792 1040.650, 1693.237 1035.700, 1693.457 1033.500 C 1693.676 1031.300, 1694.136 1026.350, 1694.480 1022.500 C 1694.823 1018.650, 1695.331 1013.250, 1695.608 1010.500 C 1695.885 1007.750, 1696.342 1002.575, 1696.624 999 C 1696.905 995.425, 1697.280 990.925, 1697.456 989 C 1698.406 978.606, 1699.137 971.064, 1699.539 967.500 C 1699.787 965.300, 1700.242 959.900, 1700.548 955.500 C 1701.442 942.682, 1701.797 938.544, 1702.444 933.369 C 1702.778 930.691, 1703.257 925.575, 1703.508 922 C 1703.759 918.425, 1704.213 913.025, 1704.517 910 C 1704.821 906.975, 1705.258 902.025, 1705.489 899 C 1705.720 895.975, 1706.146 891.025, 1706.435 888 C 1706.724 884.975, 1707.199 879.800, 1707.490 876.500 C 1707.781 873.200, 1708.246 868.250, 1708.522 865.500 C 1708.798 862.750, 1709.289 857.350, 1709.613 853.500 C 1709.937 849.650, 1710.334 845.150, 1710.494 843.500 C 1710.883 839.509, 1712.003 826.846, 1712.573 820 C 1712.825 816.975, 1713.261 812.475, 1713.542 810 C 1713.822 807.525, 1714.262 802.350, 1714.519 798.500 C 1714.776 794.650, 1715.198 789.925, 1715.457 788 C 1715.716 786.075, 1716.178 781.125, 1716.485 777 C 1716.792 772.875, 1717.251 767.250, 1717.505 764.500 C 1717.759 761.750, 1718.238 756.575, 1718.568 753 C 1719.178 746.406, 1719.894 737.171, 1720.431 729 C 1720.593 726.525, 1721.044 722.250, 1721.432 719.500 C 1721.820 716.750, 1722.348 711.575, 1722.605 708 C 1722.861 704.425, 1723.257 699.475, 1723.483 697 C 1723.709 694.525, 1724.135 689.575, 1724.430 686 C 1725.238 676.176, 1725.848 669.762, 1726.435 664.896 C 1726.727 662.478, 1727.246 656.900, 1727.589 652.500 C 1727.931 648.100, 1728.348 643.150, 1728.514 641.500 C 1728.680 639.850, 1729.102 634.900, 1729.453 630.500 C 1729.804 626.100, 1730.291 620.700, 1730.536 618.500 C 1731.173 612.792, 1732.972 591.518, 1733.454 584 C 1733.613 581.525, 1734.033 577.250, 1734.388 574.500 C 1734.743 571.750, 1735.257 566.350, 1735.530 562.500 C 1735.803 558.650, 1736.240 553.475, 1736.501 551 C 1736.762 548.525, 1737.198 543.800, 1737.470 540.500 C 1737.742 537.200, 1738.196 532.025, 1738.478 529 C 1739.041 522.968, 1739.687 515.732, 1740.488 506.500 C 1740.774 503.200, 1741.253 498.475, 1741.552 496 C 1741.850 493.525, 1742.342 487.900, 1742.645 483.500 C 1743.474 471.436, 1743.849 466.944, 1744.438 462 C 1744.732 459.525, 1745.243 454.125, 1745.572 450 C 1745.901 445.875, 1746.329 440.700, 1746.523 438.500 C 1746.717 436.300, 1747.105 431.800, 1747.385 428.500 C 1748.695 413.085, 1749.072 409.223, 1749.472 407.145 C 1749.709 405.916, 1749.651 404.255, 1749.344 403.455 C 1748.856 402.184, 1657.324 402, 1023.952 402 C 625.293 402, 298.930 402.337, 298.700 402.750 M 1024 614.500 L 1024 705 796 705 L 568 705 567.999 707.750 C 567.998 709.263, 579.023 832.499, 592.499 981.609 C 605.975 1130.718, 617 1253.005, 617 1253.356 C 617 1253.708, 708.462 1254.109, 820.250 1254.248 L 1023.500 1254.500 1023.753 1399.250 C 1023.893 1478.862, 1023.812 1544, 1023.574 1544 C 1022.740 1544, 821.769 1490.103, 821.486 1489.803 C 821.329 1489.636, 818.342 1456.988, 814.850 1417.250 L 808.500 1345 716.765 1345 L 625.031 1345 625.604 1350.750 C 625.920 1353.912, 631.692 1418.041, 638.431 1493.259 C 645.170 1568.476, 650.914 1630.247, 651.195 1630.528 C 651.476 1630.809, 734.009 1653.992, 834.603 1682.046 C 935.196 1710.100, 1018.962 1733.526, 1020.750 1734.104 L 1024 1735.155 1024 1828.657 L 1024 1922.159 1027.250 1921.460 C 1029.037 1921.075, 1034.100 1919.738, 1038.500 1918.490 C 1042.900 1917.241, 1053.250 1914.343, 1061.500 1912.051 C 1069.750 1909.758, 1086.064 1905.214, 1097.753 1901.952 C 1109.442 1898.690, 1128.567 1893.354, 1140.253 1890.093 C 1170.897 1881.543, 1200.835 1873.183, 1230 1865.033 C 1274.164 1852.690, 1306.038 1843.791, 1337.253 1835.087 C 1349.217 1831.751, 1368.792 1826.290, 1380.753 1822.951 C 1392.714 1819.613, 1411.950 1814.244, 1423.500 1811.020 C 1435.050 1807.796, 1455.750 1802.003, 1469.500 1798.145 C 1483.250 1794.288, 1496.643 1790.597, 1499.261 1789.944 C 1502.783 1789.066, 1504.143 1788.203, 1504.484 1786.628 C 1504.738 1785.458, 1505.647 1776.175, 1506.505 1766 C 1507.364 1755.825, 1509.165 1735.350, 1510.508 1720.500 C 1511.851 1705.650, 1514.768 1673.025, 1516.989 1648 C 1519.210 1622.975, 1521.915 1592.825, 1523 1581 C 1524.085 1569.175, 1526.785 1539.025, 1529 1514 C 1531.215 1488.975, 1533.915 1458.825, 1535 1447 C 1536.085 1435.175, 1538.785 1405.025, 1541 1380 C 1543.215 1354.975, 1545.915 1324.825, 1547 1313 C 1548.085 1301.175, 1550.785 1271.025, 1553 1246 C 1555.215 1220.975, 1557.918 1190.825, 1559.007 1179 C 1560.095 1167.175, 1563.019 1134.550, 1565.504 1106.500 C 1567.990 1078.450, 1570.692 1048.300, 1571.510 1039.500 C 1572.327 1030.700, 1575.027 1000.550, 1577.510 972.500 C 1579.992 944.450, 1582.692 914.300, 1583.510 905.500 C 1584.327 896.700, 1587.027 866.550, 1589.510 838.500 C 1591.992 810.450, 1594.692 780.300, 1595.510 771.500 C 1596.327 762.700, 1599.027 732.550, 1601.510 704.500 C 1603.992 676.450, 1606.692 646.300, 1607.509 637.500 C 1608.326 628.700, 1610.790 601.025, 1612.984 576 C 1615.178 550.975, 1617.176 529.038, 1617.424 527.250 L 1617.874 524 1320.937 524 L 1024 524 1024 614.500 M 767.964 887.750 C 767.944 888.163, 771.633 929.788, 776.162 980.250 L 784.397 1072 904.199 1072 L 1024 1072 1024 979.500 L 1024 887 896 887 C 825.600 887, 767.984 887.337, 767.964 887.750" stroke="none" fill="#e44d26" fill-rule="evenodd"/><path d="M 1024 614.500 L 1024 705 1251 705 L 1478 705 1478 707.651 C 1478 709.108, 1474.400 749.147, 1470 796.624 C 1465.600 844.102, 1462 883.859, 1462 884.973 L 1462 887 1243 887 L 1024 887 1024 979.496 L 1024 1071.992 903.750 1072.250 C 837.612 1072.392, 932.337 1072.619, 1114.250 1072.754 C 1428.498 1072.988, 1444.999 1073.087, 1444.981 1074.750 C 1444.936 1078.885, 1395.249 1630.079, 1394.893 1630.391 C 1394.677 1630.581, 1311.128 1653.858, 1209.229 1682.118 L 1023.958 1733.500 1023.989 1827.427 C 1024.006 1879.086, 1024.128 1921.449, 1024.260 1921.567 C 1024.558 1921.831, 1503.091 1788.242, 1503.573 1787.760 C 1503.765 1787.568, 1529.142 1505.506, 1559.967 1160.955 C 1590.791 816.405, 1616.286 532.138, 1616.621 529.250 L 1617.230 524 1320.615 524 L 1024 524 1024 614.500 M 1023.500 1399.367 L 1023.500 1544.734 1030 1542.949 C 1033.575 1541.968, 1078.800 1529.835, 1130.500 1515.987 C 1182.200 1502.139, 1224.841 1490.488, 1225.259 1490.096 C 1225.825 1489.564, 1247 1260.604, 1247 1255.019 C 1247 1254.333, 1210.486 1254, 1135.250 1254 L 1023.500 1254 1023.500 1399.367" stroke="none" fill="#f16529" fill-rule="evenodd"/><path d="" stroke="none" fill="#e54d26" fill-rule="evenodd"/><path d="M 433 138 L 433 276 480 276 L 527 276 527 230 L 527 184 568.500 184 L 610 184 610 230 L 610 276 656.500 276 L 703 276 703 138 L 703 0 656.500 0 L 610 0 610 45.500 L 610 91 568 91 L 526 91 526 45.500 L 526 0 479.500 0 L 433 0 433 138 M 742 46 L 742 92 783 92 L 824 92 824 184 L 824 276 870 276 L 916 276 916 184 L 916 92 957 92 L 998 92 998 46 L 998 0 870 0 L 742 0 742 46 M 1038 137.990 L 1038 276 1083.493 276 L 1128.986 276 1129.243 208.785 L 1129.500 141.571 1161 190.201 C 1184.205 226.025, 1192.786 238.524, 1193.584 237.666 C 1194.181 237.024, 1208.581 215.018, 1225.584 188.763 L 1256.500 141.026 1256.757 208.513 L 1257.014 276 1303.507 276 L 1350 276 1350 138 L 1350 0 1301.174 0 L 1252.347 0 1224.023 46.515 C 1208.445 72.098, 1195.189 93.726, 1194.567 94.578 C 1193.639 95.846, 1188.169 87.484, 1164.304 48.313 L 1135.174 0.500 1086.587 0.240 L 1038 -0.019 1038 137.990 M 1394 138 L 1394 276 1506.010 276 L 1618.020 276 1617.760 230.250 L 1617.500 184.500 1552.250 184.243 L 1487 183.986 1487 91.993 L 1487 0 1440.500 0 L 1394 0 1394 138" stroke="none" fill="#000000" fill-rule="evenodd"/><path d="M 1023 796 L 1023 886.500 1241.982 886.246 L 1460.964 885.991 1461.428 883.746 C 1461.683 882.510, 1465.307 843.925, 1469.482 798 C 1473.656 752.075, 1477.331 712.589, 1477.649 710.254 L 1478.226 706.009 1250.613 705.754 L 1023 705.500 1023 796 M 1023 1163.500 L 1023 1254 1135 1254 L 1247 1254 1246.957 1258.250 C 1246.891 1264.743, 1226.485 1489.848, 1225.910 1490.423 C 1225.476 1490.857, 1024.609 1545, 1023.433 1545 C 1023.195 1545, 1023 1587.541, 1023 1639.535 C 1023 1729.247, 1023.089 1734.024, 1024.750 1733.166 C 1025.713 1732.668, 1109.075 1709.396, 1210 1681.451 C 1310.925 1653.505, 1393.816 1630.383, 1394.202 1630.069 C 1394.587 1629.754, 1405.933 1506.198, 1419.415 1355.498 C 1432.896 1204.799, 1444.159 1079.588, 1444.444 1077.250 L 1444.962 1073 1233.981 1073 L 1023 1073 1023 1163.500" stroke="none" fill="#f3f3f3" fill-rule="evenodd"/><path d="" stroke="none" fill="#e85326" fill-rule="evenodd"/></svg>