<svg xmlns="http://www.w3.org/2000/svg" width="2048" height="2048" viewBox="0 0 2048 2048" version="1.1"><path d="M 0 1024 L 0 2048.001 1024.250 2047.750 L 2048.500 2047.500 2048.750 1023.750 L 2049.001 0 1024.500 0 L 0 0 0 1024 M 0.498 1024.500 C 0.498 1587.700, 0.611 1817.950, 0.750 1536.167 C 0.889 1254.384, 0.889 793.584, 0.750 512.167 C 0.611 230.750, 0.498 461.300, 0.498 1024.500 M 1532.500 929.690 C 1529.750 929.872, 1521.425 930.725, 1514 931.587 C 1397.178 945.147, 1310.613 1015.537, 1284.450 1118.245 C 1273.586 1160.893, 1274.007 1216.151, 1285.545 1262 C 1303.157 1331.989, 1346.562 1385.940, 1421.337 1430.788 C 1447.543 1446.506, 1479.945 1462.414, 1520.625 1479.536 C 1544.065 1489.402, 1582.399 1506.268, 1599.500 1514.239 C 1660.116 1542.495, 1685.089 1565.415, 1693.645 1600.647 C 1695.935 1610.074, 1695.945 1631.120, 1693.664 1640.376 C 1683.553 1681.415, 1645.480 1708.595, 1589.046 1715.061 C 1573.998 1716.785, 1540.726 1715.777, 1526 1713.151 C 1504.682 1709.349, 1489.096 1704.115, 1470 1694.345 C 1437.334 1677.631, 1408.314 1649.516, 1382.840 1609.906 C 1379.353 1604.483, 1376.077 1600.036, 1375.560 1600.023 C 1374.842 1600.006, 1226.674 1685.668, 1220.106 1689.898 C 1218.983 1690.621, 1219.701 1692.645, 1223.802 1700.320 C 1241.802 1734.009, 1268.297 1767.827, 1296.143 1792.656 C 1352.093 1842.542, 1422.818 1873.598, 1504 1883.927 C 1604.921 1896.767, 1703.700 1879.695, 1771.640 1837.669 C 1839.342 1795.790, 1878.185 1733.883, 1887.556 1652.924 C 1889.839 1633.207, 1889.094 1589.765, 1886.134 1569.912 C 1877.450 1511.670, 1855.498 1466.889, 1816.377 1427.611 C 1782.290 1393.387, 1735.882 1363.455, 1668.670 1332.347 C 1660.876 1328.740, 1635.150 1317.476, 1611.500 1307.317 C 1540.382 1276.766, 1512.246 1261.727, 1494.279 1244.660 C 1477.767 1228.975, 1470.377 1213.974, 1467.816 1190.942 C 1463.671 1153.671, 1480.826 1122.667, 1514.263 1106.998 C 1526.701 1101.169, 1536.889 1098.946, 1554.171 1098.290 C 1608.472 1096.229, 1645.170 1118.049, 1676.983 1171.310 C 1679.877 1176.155, 1682.752 1179.920, 1683.373 1179.675 C 1684.790 1179.116, 1831.207 1085.115, 1832.312 1084.055 C 1832.759 1083.626, 1830.569 1079.051, 1827.446 1073.888 C 1766.649 973.368, 1682.153 928.074, 1557.500 929.183 C 1546.500 929.280, 1535.250 929.509, 1532.500 929.690 M 922 1277.039 C 922 1509.079, 921.668 1617.104, 920.933 1623.789 C 913.802 1688.702, 881.438 1716.879, 816.500 1714.715 C 791.976 1713.898, 775.884 1708.948, 758.337 1696.826 C 740.529 1684.523, 725.546 1666.165, 705.431 1632 C 700.412 1623.475, 695.899 1616.577, 695.403 1616.671 C 694.244 1616.891, 540.898 1709.702, 539.677 1710.923 C 537.618 1712.982, 556.295 1745.999, 570.693 1765.753 C 612.435 1823.022, 667.724 1860.018, 737.500 1877.370 C 788.836 1890.135, 854.412 1891.133, 909 1879.978 C 990.991 1863.223, 1050.770 1819.362, 1084.101 1751.500 C 1102.227 1714.597, 1111.966 1674.397, 1114.992 1624 C 1115.610 1613.693, 1115.985 1482.225, 1115.991 1273.750 L 1116 940 1019 940 L 922 940 922 1277.039" stroke="none" fill="#f7df1e" fill-rule="evenodd"/><path d="M 1532 930.621 C 1465.114 936.571, 1410.802 956.515, 1367.500 991.027 C 1328.068 1022.453, 1298.498 1068.028, 1285.941 1116.729 C 1275.270 1158.116, 1274.781 1207.121, 1284.581 1253 C 1300.784 1328.851, 1347.425 1387.069, 1430 1434.511 C 1456.312 1449.628, 1486.162 1463.750, 1542 1487.496 C 1566.636 1497.972, 1600.324 1513.172, 1613.500 1519.755 C 1664.929 1545.451, 1686.199 1566.249, 1694.160 1598.623 C 1697.037 1610.324, 1697.234 1631.059, 1694.567 1641.500 C 1685.146 1678.384, 1654.298 1703.362, 1605.519 1713.602 C 1590.439 1716.767, 1559.073 1717.957, 1540.684 1716.061 C 1500.685 1711.937, 1466.686 1698.232, 1436.937 1674.238 C 1419.640 1660.288, 1397.196 1634.434, 1382.472 1611.500 C 1379.295 1606.550, 1376.387 1602.147, 1376.012 1601.715 C 1375.636 1601.283, 1343.868 1619.216, 1305.415 1641.568 C 1266.962 1663.919, 1232 1684.231, 1227.722 1686.707 L 1219.944 1691.207 1223.611 1697.854 C 1259.885 1763.604, 1309.571 1811.924, 1374 1844.111 C 1431.212 1872.692, 1496.173 1886.954, 1569.313 1886.990 C 1637.849 1887.024, 1696.117 1874.750, 1747.500 1849.455 C 1806.075 1820.619, 1848.196 1776.186, 1870.367 1719.843 C 1882.636 1688.663, 1888.008 1657.769, 1887.989 1618.506 C 1887.950 1537.242, 1865.176 1478.019, 1814.535 1427.491 C 1785.896 1398.916, 1749.095 1373.832, 1698 1348.062 C 1670.728 1334.306, 1656.456 1327.790, 1608.500 1307.194 C 1564.398 1288.254, 1544.767 1279.139, 1528.425 1270.015 C 1492.304 1249.845, 1475.470 1231.320, 1468.856 1204.460 C 1465.920 1192.536, 1465.683 1170.032, 1468.383 1159.500 C 1470.740 1150.309, 1477.778 1135.897, 1483.305 1128.947 C 1499.751 1108.263, 1526.582 1097, 1559.407 1097 C 1580.064 1097, 1595.218 1099.721, 1611.479 1106.351 C 1634.961 1115.924, 1659.103 1139.009, 1676.909 1168.915 C 1679.884 1173.912, 1682.733 1178, 1683.241 1178 C 1683.748 1178, 1713.489 1159.160, 1749.332 1136.134 C 1785.174 1113.108, 1818.213 1091.913, 1822.750 1089.034 C 1827.287 1086.155, 1831 1083.387, 1831 1082.883 C 1831 1080.055, 1811.078 1050.024, 1799.571 1035.504 C 1789.024 1022.198, 1767.878 1000.705, 1755.500 990.712 C 1715.292 958.250, 1667.505 939.363, 1608 932.415 C 1595.170 930.917, 1542.614 929.676, 1532 930.621 M 922.718 1283.750 C 922.376 1659.211, 922.853 1628.740, 916.959 1651 C 905.085 1695.842, 875.156 1715.984, 820.381 1715.997 C 770.450 1716.009, 739.940 1693.978, 704.057 1632 C 700.076 1625.125, 696.455 1619.118, 696.010 1618.651 C 695.565 1618.184, 660.394 1638.847, 617.851 1664.570 C 575.308 1690.293, 540.359 1711.441, 540.187 1711.566 C 539.560 1712.021, 548.444 1728.803, 555.630 1740.738 C 569.594 1763.930, 581.782 1779.782, 599.934 1798.363 C 635.910 1835.191, 679.311 1860.530, 730.120 1874.371 C 795.687 1892.233, 878.752 1890.655, 941.500 1870.357 C 1017.062 1845.913, 1068.796 1796.149, 1095.207 1722.500 C 1103.051 1700.627, 1108.952 1674.141, 1112.697 1644 C 1114.231 1631.652, 1114.403 1601.094, 1114.711 1285.750 L 1115.047 941 1019.039 941 L 923.031 941 922.718 1283.750" stroke="none" fill="#000000" fill-rule="evenodd"/><path d="M 1554.287 929.740 C 1557.469 929.939, 1562.419 929.937, 1565.287 929.736 C 1568.154 929.535, 1565.550 929.372, 1559.500 929.374 C 1553.450 929.376, 1551.104 929.541, 1554.287 929.740 M 970.750 940.750 C 997.288 940.898, 1040.713 940.898, 1067.250 940.750 C 1093.788 940.602, 1072.075 940.480, 1019 940.480 C 965.925 940.480, 944.213 940.602, 970.750 940.750 M 1775.986 1009.250 C 1788.514 1022.023, 1790 1023.453, 1790 1022.736 C 1790 1022.591, 1783.813 1016.403, 1776.250 1008.986 L 1762.500 995.500 1775.986 1009.250 M 1681.083 1339.386 C 1682.100 1340.329, 1706 1351.963, 1706 1351.515 C 1706 1350.963, 1682.438 1339, 1681.349 1339 C 1680.974 1339, 1680.854 1339.174, 1681.083 1339.386 M 1888.411 1619 C 1888.411 1628.625, 1888.561 1632.563, 1888.745 1627.750 C 1888.928 1622.938, 1888.928 1615.063, 1888.745 1610.250 C 1888.561 1605.438, 1888.411 1609.375, 1888.411 1619 M 601.500 1801 C 608.083 1807.600, 613.694 1813, 613.969 1813 C 614.244 1813, 609.083 1807.600, 602.500 1801 C 595.917 1794.400, 590.306 1789, 590.031 1789 C 589.756 1789, 594.917 1794.400, 601.500 1801 M 1816.984 1800.750 L 1805.500 1812.500 1817.250 1801.016 C 1823.713 1794.700, 1829 1789.413, 1829 1789.266 C 1829 1788.546, 1827.650 1789.836, 1816.984 1800.750 M 1039.483 1812.250 L 1028.500 1823.500 1039.750 1812.517 C 1050.199 1802.316, 1051.454 1801, 1050.733 1801 C 1050.586 1801, 1045.524 1806.063, 1039.483 1812.250 M 1564.287 1887.740 C 1567.469 1887.939, 1572.419 1887.937, 1575.287 1887.736 C 1578.154 1887.535, 1575.550 1887.372, 1569.500 1887.374 C 1563.450 1887.376, 1561.104 1887.541, 1564.287 1887.740" stroke="none" fill="#040404" fill-rule="evenodd"/><path d="M 922.494 1275 C 922.494 1459.525, 922.609 1535.013, 922.750 1442.750 C 922.891 1350.488, 922.891 1199.513, 922.750 1107.250 C 922.609 1014.988, 922.494 1090.475, 922.494 1275 M 1115.494 1277 C 1115.494 1462.625, 1115.609 1538.562, 1115.750 1445.750 C 1115.891 1352.937, 1115.891 1201.062, 1115.750 1108.250 C 1115.609 1015.437, 1115.494 1091.375, 1115.494 1277 M 1776.500 1009 C 1783.083 1015.600, 1788.694 1021, 1788.969 1021 C 1789.244 1021, 1784.083 1015.600, 1777.500 1009 C 1770.917 1002.400, 1765.306 997, 1765.031 997 C 1764.756 997, 1769.917 1002.400, 1776.500 1009 M 1558.250 1716.742 C 1561.963 1716.934, 1568.037 1716.934, 1571.750 1716.742 C 1575.463 1716.549, 1572.425 1716.392, 1565 1716.392 C 1557.575 1716.392, 1554.537 1716.549, 1558.250 1716.742 M 1817.982 1800.750 L 1807.500 1811.500 1818.250 1801.018 C 1824.162 1795.253, 1829 1790.415, 1829 1790.268 C 1829 1789.546, 1827.718 1790.765, 1817.982 1800.750 M 600.982 1801.250 C 606.747 1807.162, 611.585 1812, 611.732 1812 C 612.454 1812, 611.235 1810.718, 601.250 1800.982 L 590.500 1790.500 600.982 1801.250 M 819.750 1887.744 C 824.288 1887.929, 831.712 1887.929, 836.250 1887.744 C 840.788 1887.559, 837.075 1887.407, 828 1887.407 C 818.925 1887.407, 815.212 1887.559, 819.750 1887.744" stroke="none" fill="#f3db1b" fill-rule="evenodd"/></svg>