<svg xmlns="http://www.w3.org/2000/svg" width="1200" height="1238" viewBox="0 0 1200 1238" version="1.1"><path d="M 276.280 48.736 C 278.909 48.943, 282.959 48.940, 285.280 48.731 C 287.601 48.521, 285.450 48.352, 280.500 48.355 C 275.550 48.358, 273.651 48.530, 276.280 48.736 M 466.728 902.722 C 468.503 902.943, 471.653 902.946, 473.728 902.730 C 475.802 902.513, 474.350 902.333, 470.500 902.328 C 466.650 902.324, 464.952 902.501, 466.728 902.722" stroke="none" fill="#272727" fill-rule="evenodd"/><path d="M 826.500 1.030 C 796.506 3.634, 756.818 10.502, 731.738 17.427 L 718.976 20.952 706.221 18.997 C 679.140 14.846, 661.669 13.642, 627.500 13.570 C 591.987 13.495, 582.025 14.351, 556.539 19.668 C 530.621 25.075, 502.212 35.478, 481.839 47.023 L 474.787 51.019 462.144 47.086 C 388.539 24.189, 317.027 13.505, 259.799 16.856 C 209.659 19.793, 173.166 28.778, 136.873 47.125 C 47.465 92.323, 1.073 183.630, 1.024 314.500 C 1.010 351.849, 5.376 387.037, 17.586 448 C 42.098 570.386, 77.844 689.344, 114.502 770.526 C 155.676 861.709, 201.101 910.677, 253.688 920.570 C 265.666 922.823, 286.244 922.099, 297.500 919.029 C 309.859 915.657, 321.333 910.295, 333.300 902.299 L 344.237 894.992 350.807 901.138 C 368.071 917.288, 393.333 928.558, 425.500 934.462 C 467.821 942.230, 508.884 939.473, 543.277 926.555 C 548.294 924.670, 552.759 923.351, 553.199 923.623 C 553.640 923.895, 554.001 929.379, 554.002 935.809 C 554.007 960.703, 556.855 1015.064, 559.591 1042.500 C 563.087 1077.550, 567.077 1096.380, 577.427 1126.677 C 590.205 1164.080, 600.283 1182.187, 618.500 1200.468 C 636.743 1218.776, 659.928 1230.673, 687 1235.617 C 701.156 1238.203, 727.588 1237.976, 744.478 1235.124 C 761.962 1232.172, 787.082 1225.930, 801.546 1220.942 C 883.974 1192.520, 926.060 1128.572, 942.410 1006.908 C 945.554 983.507, 947.603 959.095, 949.495 922.500 C 950.319 906.550, 951.243 892.600, 951.548 891.500 C 952.082 889.575, 952.969 889.499, 975.301 889.464 C 1025.162 889.388, 1070.512 880.274, 1106.500 863.098 C 1150.067 842.305, 1185.230 811.556, 1196.564 784.339 C 1199.183 778.051, 1199.443 776.273, 1199.795 762.273 C 1200.137 748.696, 1199.944 746.341, 1198.010 740.530 C 1195.012 731.521, 1187.515 720.468, 1180.423 714.599 C 1162.400 699.684, 1138.040 695.794, 1105.500 702.635 C 1092.131 705.446, 1067.440 708.996, 1056.724 709.648 L 1045.948 710.304 1053.106 697.902 C 1152.250 526.133, 1210.929 317.368, 1191.913 204.059 C 1185.154 163.791, 1172.959 142.088, 1136.500 105.451 C 1078.220 46.886, 1008.467 14.003, 917.979 2.435 C 903.415 0.574, 842.532 -0.361, 826.500 1.030 M 825.500 34.077 C 790.859 37.237, 746.001 46.047, 722.191 54.366 L 715.228 56.798 707.336 54.961 C 674.485 47.311, 625.485 43.887, 593.856 47.029 C 554 50.988, 515.550 63.496, 487.015 81.784 L 479.531 86.580 462.515 80.875 C 361.717 47.079, 263.401 39.475, 191.987 59.952 C 102.502 85.610, 50.651 152.998, 37.294 261 C 34.686 282.083, 34.703 343.816, 37.322 362.500 C 47.682 436.423, 69.267 532.324, 94.038 614.493 C 149.776 799.381, 210.245 890.023, 274.965 885.698 C 293.790 884.440, 310.627 876.205, 327.357 860.075 C 331.678 855.909, 343.819 842.375, 354.336 830 C 375.386 805.232, 398.686 778.874, 420.772 754.844 L 435.162 739.188 442.169 742.651 C 456.715 749.840, 477.779 755.579, 493.784 756.714 C 498.341 757.037, 502.303 757.681, 502.590 758.145 C 503.232 759.185, 480.099 787.638, 476.070 790.763 C 467.846 797.142, 452.813 802.310, 424.438 808.515 C 402.992 813.205, 393.500 816.171, 383.682 821.249 C 360.114 833.441, 355.292 854.493, 371.984 872.317 C 384.061 885.213, 405.622 894.563, 434.500 899.426 C 488.689 908.552, 536.313 897.606, 574.250 867.305 L 581 861.914 581.007 904.207 C 581.019 977.825, 584.319 1041.525, 590.104 1079.816 C 593.537 1102.543, 596.490 1111.861, 607.001 1133.150 C 626.905 1173.462, 656.213 1196.643, 696.039 1203.574 C 711.138 1206.202, 739.083 1205.099, 758.061 1201.127 C 835.061 1185.011, 874.349 1152.198, 892.028 1089.239 C 893.654 1083.446, 896.117 1072.903, 897.500 1065.810 C 902.407 1040.645, 916.335 937.094, 924.107 868 C 925.313 857.275, 926.365 848.405, 926.445 848.288 C 926.525 848.171, 931.070 848.998, 936.545 850.124 C 970.044 857.017, 1027.175 852.317, 1068 839.311 C 1097.435 829.934, 1137.586 804.554, 1153.543 785.237 C 1161.986 775.016, 1165.418 767.332, 1165.436 758.601 C 1165.460 747.585, 1160.187 739.712, 1149.500 734.808 C 1142.222 731.468, 1126.205 731.638, 1108.500 735.243 C 1084.202 740.189, 1068.353 742.111, 1047 742.699 C 1033.665 743.066, 1023.402 742.849, 1017.635 742.079 C 1008.035 740.797, 994.836 736.999, 991.285 734.497 L 989.070 732.936 996.855 720.718 C 1073.038 601.141, 1131.865 453.541, 1152.378 330.500 C 1164.518 257.686, 1162.121 204.061, 1145.211 170.152 C 1135.621 150.920, 1100.578 114.690, 1071.893 94.350 C 1026.322 62.035, 978.551 44.008, 915.500 35.332 C 902.371 33.526, 840.933 32.669, 825.500 34.077" stroke="none" fill="#000000" fill-rule="evenodd"/><path d="M 823.500 69.581 C 810.313 70.854, 778.255 75.581, 775.417 76.670 C 774.703 76.944, 780.729 80.457, 788.809 84.477 C 858.441 119.118, 917.362 177.232, 959.167 252.503 C 972.916 277.258, 985.390 307.139, 990.057 326.500 C 993.711 341.655, 992.486 367.717, 985.990 413 C 978.824 462.966, 978.719 470.955, 984.538 523.693 C 989.470 568.396, 990.431 585.626, 989.056 604.760 C 986.988 633.539, 981.061 656.212, 969.486 679.616 C 965.919 686.829, 963.014 693.129, 963.032 693.616 C 963.071 694.709, 967.973 700.370, 968.444 699.865 C 969.962 698.239, 983.465 675.771, 994.050 657.260 C 1052.728 554.637, 1097.580 435.687, 1116.503 332.500 C 1128.715 265.912, 1127.270 208.498, 1112.761 183.880 C 1106.214 172.771, 1080.985 146.139, 1063.815 132.211 C 1020.597 97.155, 966.618 76.010, 903.778 69.520 C 885.562 67.639, 843.273 67.671, 823.500 69.581 M 591.665 82.462 C 531.875 90.053, 486.186 115.919, 450.895 162.159 C 422.174 199.788, 400.666 254.965, 390.536 317 C 387.832 333.563, 385.006 357.218, 385.646 357.934 C 385.859 358.172, 389.514 356.528, 393.767 354.281 C 410.929 345.212, 438.696 335.065, 457 331.174 C 489.695 324.225, 519.404 326.140, 540.070 336.528 C 550.244 341.643, 555.407 345.339, 562.658 352.698 C 574.574 364.791, 582.675 381.037, 587.491 402.500 C 597.155 445.574, 601.656 487.261, 600.717 525 C 599.573 570.976, 591.820 602.893, 569.746 652.500 C 560.890 672.403, 548.552 704.838, 543.967 720.273 C 542.335 725.766, 541 730.359, 541 730.481 C 541 730.602, 543.362 730.315, 546.250 729.842 C 556.214 728.211, 571.958 732.123, 583.600 739.123 C 592.512 744.481, 602.881 756.229, 608.347 767.162 C 616.636 783.743, 616.201 777.482, 616.440 883.469 C 616.649 976.077, 617.082 992.160, 620.527 1035.500 C 623.312 1070.532, 626.486 1089.817, 631.583 1102.681 C 635.426 1112.378, 641.519 1124.360, 646.748 1132.500 C 652.268 1141.092, 665.592 1154.332, 673.294 1158.877 C 694.811 1171.575, 725.074 1173.509, 761.182 1164.493 C 794.044 1156.288, 815.733 1145.615, 831.028 1130.124 C 846.655 1114.298, 855.827 1094.354, 862.590 1061.500 C 870.444 1023.340, 893.228 840.857, 894.490 806 C 895.111 788.843, 896.088 781.678, 899.128 772 C 905.237 752.553, 917.890 739.334, 937.542 731.869 L 945.951 728.675 942.725 724.463 C 915.572 689, 912.150 683.731, 900.542 659.500 C 896.589 651.250, 887.347 633.700, 880.004 620.500 C 820.891 514.235, 798.565 443.429, 808.627 394.127 C 816.517 355.468, 843.748 331.238, 888 323.504 C 899.621 321.473, 930.093 320.512, 943 321.770 C 948.225 322.279, 952.621 322.606, 952.768 322.496 C 953.451 321.989, 945.131 302.023, 938.573 288.431 C 904.567 217.943, 851.781 159.689, 789.540 123.956 C 753.119 103.046, 711.110 89.156, 667 83.439 C 649.734 81.201, 606.059 80.635, 591.665 82.462 M 267.500 83.681 C 245.451 84.448, 218.297 88.594, 200.500 93.912 C 121.675 117.464, 79.479 177.443, 70.988 278 C 69.487 295.776, 69.783 334.984, 71.544 351.778 C 76.836 402.236, 98.290 502.071, 120.910 581.500 C 163.444 730.851, 211.952 826.566, 255.533 847.138 C 270.186 854.054, 284.291 851.085, 300.332 837.706 C 302.989 835.490, 312.637 824.862, 321.772 814.088 C 349.105 781.850, 371.183 756.842, 395.309 730.788 L 406.154 719.076 399.535 712.884 C 371.116 686.299, 350.894 645.911, 346.033 606.026 C 344.395 592.592, 344.793 569.069, 346.956 551.443 C 351.758 512.308, 352.913 478.502, 350.898 436 C 348.473 384.830, 349.264 360.567, 354.576 323.212 C 366.567 238.882, 395.598 169.758, 438.833 122.590 C 443.325 117.690, 447 113.396, 447 113.048 C 447 112.701, 440.365 110.458, 432.256 108.064 C 384.665 94.016, 340.737 86.144, 298 84.004 C 287.275 83.467, 277.825 83.112, 277 83.215 C 276.175 83.318, 271.900 83.528, 267.500 83.681 M 1159.378 249 C 1159.378 255.325, 1159.541 257.913, 1159.739 254.750 C 1159.937 251.588, 1159.937 246.412, 1159.739 243.250 C 1159.541 240.088, 1159.378 242.675, 1159.378 249 M 897.665 357.032 C 878.774 360.002, 864.896 365.944, 855.943 374.897 C 844.555 386.285, 840.304 400.588, 841.347 424 C 843.205 465.683, 864.735 521.589, 911.053 605 C 918.841 619.025, 928.562 637.474, 932.655 645.998 L 940.098 661.496 941.886 657.498 C 944.885 650.790, 949.815 634.943, 951.478 626.667 C 956.181 603.258, 955.909 578.373, 950.444 532 C 947.861 510.078, 946.694 495.393, 946.295 479.783 C 945.652 454.600, 946.486 443.776, 951.985 406 C 954.107 391.425, 956.160 374.722, 956.549 368.882 L 957.255 358.264 953.878 357.610 C 948.205 356.511, 903.880 356.055, 897.665 357.032 M 482.500 362.030 C 454.431 364.926, 415.015 379.524, 391.500 395.732 L 384.500 400.557 384.599 407.028 C 384.653 410.588, 385.207 426.775, 385.831 443 C 387.456 485.280, 385.996 518.051, 380.441 564 C 374.031 617.015, 395.115 667.725, 436.427 698.655 C 454.564 712.234, 481.550 722.010, 500.860 721.995 L 507.500 721.990 509.908 713.245 C 512.846 702.578, 525.230 668.346, 531.340 654 C 533.800 648.225, 538.509 637.362, 541.806 629.860 C 553.075 604.215, 559.761 582.192, 563.684 557.797 C 566.560 539.906, 566.257 487.576, 563.142 464.500 C 560.498 444.904, 555.792 418.099, 552.960 406.500 C 548.750 389.258, 539.148 375.133, 527.284 368.728 C 516.801 363.069, 498.686 360.360, 482.500 362.030 M 891.500 373.010 C 879.774 375.125, 870.107 380.148, 867.601 385.428 C 866.148 388.490, 866.114 389.334, 867.323 392.212 C 869.376 397.097, 876.859 403.427, 883.581 405.964 C 897.423 411.190, 914.062 404.538, 922.069 390.578 C 926.797 382.334, 925.766 378.111, 918.210 374.769 C 912.915 372.426, 899.599 371.550, 891.500 373.010 M 485.224 382.403 C 482.872 383.174, 479.796 384.559, 478.390 385.480 C 475.134 387.614, 472.772 393.177, 473.601 396.758 C 475.381 404.438, 484.590 414.664, 493.769 419.155 C 500.623 422.507, 511.605 422.887, 519.202 420.034 C 526.551 417.274, 534.331 410.319, 536.540 404.534 C 538.141 400.342, 538.132 399.937, 536.362 396.332 C 533.852 391.221, 527.328 386.503, 519.208 383.926 C 510.544 381.176, 491.562 380.326, 485.224 382.403 M 954.634 762.701 C 944.988 765.751, 943.226 766.678, 938.946 770.959 C 932.401 777.503, 929.723 786.078, 929.592 800.903 L 929.500 811.411 934.314 813.211 C 951.400 819.603, 993.654 819.707, 1027.103 813.441 C 1056.392 807.954, 1075.782 800.372, 1098.775 785.419 C 1108.175 779.306, 1120.328 769.994, 1119.711 769.378 C 1119.503 769.169, 1113.295 770.109, 1105.916 771.465 C 1081.586 775.937, 1069.843 777.159, 1046 777.701 C 1027.124 778.130, 1020.265 777.907, 1011.142 776.567 C 993.823 774.024, 980.046 769.204, 969.500 761.998 L 965.500 759.265 954.634 762.701 M 545.898 765.936 C 541.494 768.332, 535.347 774.987, 519.888 794.098 C 513.365 802.161, 505.311 811.274, 501.990 814.349 C 489.716 825.712, 473.907 832.803, 446 839.460 C 414.588 846.953, 407.423 848.788, 404 850.219 L 400.500 851.681 406.598 854.778 C 424.431 863.835, 456.948 869.032, 482.712 866.944 C 518.026 864.082, 547.366 849.224, 570.014 822.736 C 579.818 811.270, 582.419 805.721, 581.743 797.716 C 580.981 788.693, 577.667 780.891, 571.930 774.614 C 563.743 765.656, 552.997 762.074, 545.898 765.936 M 581.360 937 C 581.360 942.225, 581.529 944.362, 581.735 941.750 C 581.941 939.138, 581.941 934.862, 581.735 932.250 C 581.529 929.638, 581.360 931.775, 581.360 937" stroke="none" fill="#336791" fill-rule="evenodd"/><path d="M 841.903 34.077 C 802.738 36.025, 754.226 44.563, 723.945 54.838 L 715.390 57.741 704.945 55.387 C 692.814 52.654, 671.238 49.430, 655.500 48.001 C 641.049 46.688, 605.924 46.722, 592.856 48.061 C 553.463 52.098, 517.318 63.994, 487.341 82.787 L 479.541 87.677 462.021 81.810 C 429.655 70.972, 393.685 61.935, 361.500 56.555 C 247.688 37.532, 158.818 56.557, 103.204 111.851 C 65.821 149.018, 44.041 201.389, 37.479 269.883 C 35.544 290.084, 35.532 335.903, 37.458 354 C 43.947 414.985, 68.802 527.456, 94.988 614.330 C 140.160 764.191, 189.349 853.392, 240.089 877.461 C 257.859 885.891, 275.175 887.140, 292.322 881.229 C 309.814 875.200, 323.237 864.865, 341.659 843.240 C 376.659 802.155, 399.976 775.694, 421.803 752.291 L 435.105 738.028 441.803 741.388 C 455.450 748.236, 476.386 754.326, 490.268 755.487 C 501.211 756.403, 504 756.974, 504 758.302 C 504 759.953, 483.238 785.720, 478.714 789.685 C 469.730 797.556, 457.019 802.215, 424.775 809.450 C 394.161 816.320, 383.127 820.585, 373.448 829.287 C 366.341 835.677, 363.500 841.735, 363.500 850.500 C 363.500 859.474, 366.311 865.488, 374.016 873 C 387.383 886.031, 409.724 894.828, 441.500 899.572 C 458.819 902.158, 485.579 901.952, 501.431 899.111 C 528.891 894.189, 554.557 882.401, 575.500 865.092 L 581.500 860.133 582.130 919.817 C 583.277 1028.475, 588.446 1086.294, 599.494 1114.026 C 620.425 1166.570, 650.977 1194.601, 696.039 1202.608 C 728.008 1208.289, 778.145 1199.419, 815.929 1181.397 C 862.261 1159.299, 885.766 1124.550, 897.425 1060.920 C 902.639 1032.462, 916.552 927.950, 923.107 868 C 924.339 856.725, 925.453 847.354, 925.582 847.176 C 925.710 846.997, 930.105 847.781, 935.349 848.917 C 969.637 856.345, 1026.879 851.787, 1067.788 838.369 C 1105.454 826.016, 1149.692 794.778, 1160.960 772.578 C 1163.938 766.712, 1164.423 764.766, 1164.436 758.631 C 1164.460 747.542, 1159.814 740.609, 1149 735.599 C 1141.984 732.348, 1125.936 732.762, 1105.500 736.720 C 1076.197 742.397, 1065.598 743.490, 1040 743.477 C 1015.231 743.465, 1009.203 742.711, 996.940 738.093 C 986.408 734.126, 986.362 735.428, 997.674 717.402 C 1019.961 681.887, 1032.719 659.222, 1051.943 621 C 1109.511 506.538, 1146.244 390.511, 1157.210 288.500 C 1158.938 272.430, 1158.897 227.327, 1157.143 215 C 1153.427 188.877, 1145.790 169.525, 1132.871 153.500 C 1123.064 141.334, 1100.696 118.644, 1088.668 108.661 C 1033.425 62.808, 966.511 38.220, 885.500 34.006 C 864.902 32.935, 864.875 32.935, 841.903 34.077 M 840.500 67.706 C 822.823 68.674, 776.656 74.859, 773.762 76.647 C 773.344 76.905, 779.880 80.578, 788.285 84.808 C 848.659 115.194, 899.232 160.859, 939.669 221.500 C 964.296 258.431, 986.915 307.724, 990.952 333.257 C 992.623 343.829, 990.365 378.854, 986.085 408.735 C 983.861 424.264, 981.523 442.264, 980.890 448.735 C 979.126 466.754, 980.304 492.949, 984.476 528.500 C 993.112 602.099, 989.142 639.588, 968.352 680.755 C 961.450 694.421, 961.567 693.233, 966.505 699.495 C 967.860 701.213, 968.216 701.283, 969.064 699.995 C 986.520 673.489, 1014.782 622.220, 1032.731 584.500 C 1079.424 486.371, 1110.309 387.983, 1122.039 300 C 1124.738 279.750, 1125.796 238.894, 1124.036 222.852 C 1120.578 191.332, 1114.730 180.547, 1085.066 150.985 C 1034.973 101.065, 971.939 73.915, 892.500 68.043 C 879.555 67.086, 854.770 66.926, 840.500 67.706 M 602 81.047 C 561.351 83.978, 524.607 96.758, 493.645 118.734 C 482.422 126.700, 458.827 150.337, 449.556 162.901 C 422.184 199.997, 403.035 247.492, 392.065 305.500 C 387.693 328.618, 383.979 359, 385.525 359 C 385.955 359, 389.051 357.476, 392.404 355.613 C 416.956 341.973, 453.847 330.551, 481.979 327.880 C 518.609 324.403, 550.267 336.304, 568.659 360.465 C 579.160 374.261, 584.573 388.574, 589.969 416.813 C 606.717 504.467, 603.738 567.200, 579.988 627 C 577.913 632.225, 572.742 644.375, 568.499 654 C 558.527 676.615, 548.276 703.802, 542.976 721.692 L 540.253 730.885 548.376 730.322 C 558.123 729.647, 567.063 731.559, 577.500 736.553 C 594.808 744.834, 608.605 762.565, 614.032 783.500 C 616.055 791.303, 616.089 792.927, 615.445 849.500 C 614.141 964.154, 619.147 1061.894, 627.947 1093.583 C 631.901 1107.819, 642.180 1127.987, 651.470 1139.735 C 675.656 1170.322, 710.445 1177.823, 764.345 1164.071 C 803.493 1154.083, 826.893 1140.129, 842.242 1117.619 C 850.279 1105.833, 857.786 1086.714, 861.982 1067.349 C 870.394 1028.525, 893.193 847.813, 895.018 805.500 C 895.654 790.763, 896.425 783.410, 897.949 777.558 C 903.721 755.388, 917.026 740.248, 937.524 732.524 C 941.938 730.861, 945.691 729.131, 945.864 728.680 C 946.038 728.230, 941.302 721.578, 935.340 713.899 C 917.678 691.151, 909.458 677.991, 900.682 658.409 C 898.239 652.959, 889.866 637.025, 882.074 623 C 845.675 557.483, 825.071 510.993, 814.486 470.500 C 808.617 448.046, 807.600 440.482, 807.560 419 C 807.529 402.046, 807.815 398.351, 809.756 390.699 C 819.649 351.674, 848.398 329.086, 896 322.935 C 906.822 321.537, 931.227 321.281, 944.384 322.427 L 953.267 323.202 952.577 320.451 C 951.083 314.498, 944.413 298.788, 937.365 284.619 C 889.854 189.109, 812.229 120.859, 720.654 94.081 C 682.835 83.022, 639.945 78.310, 602 81.047 M 258 83.581 C 256.075 83.801, 249.550 84.477, 243.500 85.083 C 207.961 88.644, 175.053 99.807, 149 117.139 C 135.440 126.160, 116.462 145.308, 107.090 159.425 C 89.641 185.710, 78.399 217.539, 72.962 256.052 C 68.358 288.667, 67.987 329.501, 72.015 360.049 C 79.267 415.042, 97.368 499.117, 117.645 572 C 161.831 730.814, 213.399 831.991, 258.854 849.053 C 267.401 852.262, 278.387 851.572, 287.024 847.286 C 295.669 842.996, 303.915 836.037, 313 825.364 C 351.099 780.606, 370.802 758.151, 394.108 732.927 L 406.716 719.281 395.509 707.790 C 367.754 679.331, 350.453 642.247, 346.055 601.789 C 344.448 586.999, 344.768 575.491, 347.443 551.977 C 352.407 508.336, 352.775 489.254, 350.384 399.373 C 349.282 357.955, 354.219 314.972, 365.070 271.500 C 380.635 209.144, 403.896 162.610, 439.459 122.685 C 444.268 117.286, 448.044 112.713, 447.851 112.523 C 447.039 111.723, 420.303 103.924, 405.500 100.170 C 377.893 93.167, 349.528 88.040, 321.500 84.986 C 311.383 83.884, 264.449 82.845, 258 83.581 M 905 355.703 C 883.095 357.427, 862.687 365.594, 853.398 376.355 C 849.352 381.042, 844.777 389.550, 843.102 395.500 C 840.835 403.556, 839.953 417.897, 841.025 429.263 C 845.088 472.351, 866.135 525.301, 912.069 608 C 919.860 622.025, 928.446 638.422, 931.150 644.437 C 933.855 650.452, 937.037 656.941, 938.221 658.858 L 940.375 662.343 942.295 657.921 C 951.388 636.985, 955.073 616.910, 955.071 588.318 C 955.069 569.248, 954.415 560.575, 950.452 527.060 C 944.549 477.148, 944.785 459.634, 952.038 409.500 C 956.014 382.014, 958.251 359.137, 957.088 357.847 C 955.449 356.029, 919.615 354.554, 905 355.703 M 474.928 362.530 C 447.019 366.881, 412.871 380.306, 390.547 395.704 L 383.595 400.500 383.848 406.500 C 383.988 409.800, 384.525 420.825, 385.042 431 C 387.065 470.812, 385.928 511.642, 381.839 546 C 379.136 568.723, 378.444 589.537, 379.985 601.831 C 386.710 655.482, 422.330 700.747, 470.530 716.896 C 480.107 720.105, 495.492 722.989, 503.064 722.996 L 507.627 723 510.416 713.250 C 515.005 697.205, 527.555 664.047, 538.708 638.500 C 554.930 601.344, 561.594 579.069, 565.187 550 C 566.864 536.433, 566.861 494.255, 565.182 478 C 562.244 449.563, 554.632 407.403, 550.392 396.088 C 539.906 368.105, 513.757 356.477, 474.928 362.530 M 887 374.591 C 874.749 377.843, 867 383.507, 867 389.210 C 867 394.221, 876.741 403.439, 884.872 406.123 C 897.387 410.253, 913.128 403.720, 921.175 391.054 C 926.317 382.962, 924.701 377.439, 916.316 374.449 C 911.247 372.641, 894.033 372.725, 887 374.591 M 488.326 382.044 C 479.831 383.724, 474 388.658, 474 394.168 C 474 401.529, 483.509 413.099, 494.117 418.647 C 498.740 421.064, 500.629 421.456, 507.500 421.426 C 517.071 421.384, 522.638 419.218, 529.546 412.850 C 536.990 405.989, 538.867 400.153, 535.296 394.973 C 532.849 391.422, 531.259 390.251, 524.287 386.864 C 514.342 382.033, 498.871 379.959, 488.326 382.044 M 954.715 761.963 C 949.883 763.513, 944.121 765.978, 941.911 767.440 C 933.422 773.058, 929 785.020, 929 802.365 L 929 811.835 933.250 813.437 C 960.039 823.534, 1025.931 818.740, 1064.697 803.874 C 1080.082 797.974, 1100.320 786.210, 1114.750 774.779 C 1120.886 769.918, 1122.711 767.334, 1119.250 768.408 C 1115.852 769.462, 1088.340 773.975, 1076 775.502 C 1030.852 781.091, 993.059 776.533, 972.070 762.967 C 968.695 760.785, 965.385 759.033, 964.716 759.072 C 964.047 759.112, 959.547 760.413, 954.715 761.963 M 542.841 767.395 C 538.408 770.780, 531.575 778.534, 516.310 797.500 C 494.632 824.435, 482.760 830.709, 431.500 842.316 C 410.780 847.009, 401.925 849.725, 401.307 851.580 C 400.746 853.262, 415.619 859.765, 426.114 862.427 C 448.822 868.188, 479.337 869.490, 498.500 865.516 C 527.302 859.544, 551.057 845.719, 569.550 824.167 C 578.642 813.572, 580.869 810.025, 581.903 804.490 C 584.636 789.860, 574.541 770.965, 561.355 766.032 C 553.112 762.947, 548.191 763.310, 542.841 767.395" stroke="none" fill="#ffffff" fill-rule="evenodd"/><path d="M 617.292 46.742 C 621.027 46.935, 626.877 46.934, 630.292 46.739 C 633.706 46.545, 630.650 46.387, 623.500 46.389 C 616.350 46.390, 613.556 46.550, 617.292 46.742 M 855.250 67.746 C 860.612 67.925, 869.388 67.925, 874.750 67.746 C 880.112 67.566, 875.725 67.419, 865 67.419 C 854.275 67.419, 849.888 67.566, 855.250 67.746 M 617.789 80.741 C 621.248 80.937, 626.648 80.936, 629.789 80.738 C 632.930 80.540, 630.100 80.380, 623.500 80.382 C 616.900 80.384, 614.330 80.546, 617.789 80.741 M 264.250 83.728 C 266.313 83.944, 269.688 83.944, 271.750 83.728 C 273.813 83.513, 272.125 83.336, 268 83.336 C 263.875 83.336, 262.188 83.513, 264.250 83.728 M 289.776 83.733 C 292.128 83.945, 295.728 83.942, 297.776 83.727 C 299.824 83.512, 297.900 83.339, 293.500 83.343 C 289.100 83.346, 287.424 83.522, 289.776 83.733 M 1109.500 128 C 1116.083 134.600, 1121.694 140, 1121.969 140 C 1122.244 140, 1117.083 134.600, 1110.500 128 C 1103.917 121.400, 1098.306 116, 1098.031 116 C 1097.756 116, 1102.917 121.400, 1109.500 128 M 1085 151.500 C 1091.307 157.825, 1096.692 163, 1096.967 163 C 1097.242 163, 1092.307 157.825, 1086 151.500 C 1079.693 145.175, 1074.308 140, 1074.033 140 C 1073.758 140, 1078.693 145.175, 1085 151.500 M 885.500 155 C 890.427 159.950, 894.683 164, 894.958 164 C 895.233 164, 891.427 159.950, 886.500 155 C 881.573 150.050, 877.317 146, 877.042 146 C 876.767 146, 880.573 150.050, 885.500 155 M 35.417 312.500 C 35.418 322.950, 35.566 327.089, 35.746 321.698 C 35.926 316.307, 35.925 307.757, 35.744 302.698 C 35.563 297.639, 35.416 302.050, 35.417 312.500 M 69.417 312.500 C 69.418 322.950, 69.566 327.089, 69.746 321.698 C 69.926 316.307, 69.925 307.757, 69.744 302.698 C 69.563 297.639, 69.416 302.050, 69.417 312.500 M 991.374 354.500 C 991.376 360.550, 991.541 362.896, 991.740 359.713 C 991.939 356.531, 991.937 351.581, 991.736 348.713 C 991.535 345.846, 991.372 348.450, 991.374 354.500 M 915.250 355.742 C 918.962 355.934, 925.038 355.934, 928.750 355.742 C 932.462 355.549, 929.425 355.392, 922 355.392 C 914.575 355.392, 911.538 355.549, 915.250 355.742 M 899.250 372.728 C 901.313 372.944, 904.688 372.944, 906.750 372.728 C 908.813 372.513, 907.125 372.336, 903 372.336 C 898.875 372.336, 897.188 372.513, 899.250 372.728 M 349.402 391 C 349.402 399.525, 349.556 403.012, 349.743 398.750 C 349.931 394.488, 349.931 387.512, 349.743 383.250 C 349.556 378.988, 349.402 382.475, 349.402 391 M 806.355 418.500 C 806.352 423.450, 806.521 425.601, 806.731 423.280 C 806.940 420.959, 806.943 416.909, 806.736 414.280 C 806.530 411.651, 806.358 413.550, 806.355 418.500 M 351.328 440.500 C 351.333 444.350, 351.513 445.802, 351.730 443.728 C 351.946 441.653, 351.943 438.503, 351.722 436.728 C 351.501 434.952, 351.324 436.650, 351.328 440.500 M 386.374 471.500 C 386.376 477.550, 386.541 479.896, 386.740 476.713 C 386.939 473.531, 386.937 468.581, 386.736 465.713 C 386.535 462.846, 386.372 465.450, 386.374 471.500 M 566.415 515 C 566.415 525.175, 566.564 529.337, 566.745 524.250 C 566.927 519.163, 566.927 510.837, 566.745 505.750 C 566.564 500.663, 566.415 504.825, 566.415 515 M 600.328 530.500 C 600.333 534.350, 600.513 535.802, 600.730 533.728 C 600.946 531.653, 600.943 528.503, 600.722 526.728 C 600.501 524.952, 600.324 526.650, 600.328 530.500 M 850 563.356 C 850 564.443, 857.965 580, 858.522 580 C 858.970 580, 851.321 564.101, 850.384 563.083 C 850.173 562.854, 850 562.977, 850 563.356 M 989.365 588.500 C 989.368 594, 989.536 596.122, 989.738 593.216 C 989.941 590.311, 989.939 585.811, 989.734 583.216 C 989.528 580.622, 989.363 583, 989.365 588.500 M 389 702.275 C 389 702.426, 392.488 705.914, 396.750 710.025 L 404.500 717.500 397.025 709.750 C 390.082 702.552, 389 701.544, 389 702.275 M 1146.971 790.750 L 1140.500 797.500 1147.250 791.029 C 1153.520 785.018, 1154.457 784, 1153.721 784 C 1153.568 784, 1150.530 787.038, 1146.971 790.750 M 616.382 803.500 C 616.384 810.100, 616.546 812.670, 616.741 809.211 C 616.937 805.752, 616.936 800.352, 616.738 797.211 C 616.540 794.070, 616.380 796.900, 616.382 803.500 M 503.971 811.750 L 497.500 818.500 504.250 812.029 C 510.520 806.018, 511.457 805, 510.721 805 C 510.568 805, 507.530 808.038, 503.971 811.750 M 967.250 818.743 C 971.513 818.931, 978.487 818.931, 982.750 818.743 C 987.013 818.556, 983.525 818.402, 975 818.402 C 966.475 818.402, 962.987 818.556, 967.250 818.743 M 615.459 885.500 C 615.460 909.700, 615.590 919.457, 615.749 907.182 C 615.908 894.907, 615.908 875.107, 615.749 863.182 C 615.589 851.257, 615.459 861.300, 615.459 885.500 M 581.450 894 C 581.450 912.975, 581.584 920.737, 581.748 911.250 C 581.913 901.763, 581.913 886.237, 581.748 876.750 C 581.584 867.263, 581.450 875.025, 581.450 894 M 616.355 962.500 C 616.352 967.450, 616.521 969.601, 616.731 967.280 C 616.940 964.959, 616.943 960.909, 616.736 958.280 C 616.530 955.651, 616.358 957.550, 616.355 962.500 M 713.750 1170.737 C 716.638 1170.939, 721.362 1170.939, 724.250 1170.737 C 727.138 1170.535, 724.775 1170.370, 719 1170.370 C 713.225 1170.370, 710.862 1170.535, 713.750 1170.737" stroke="none" fill="#fafafb" fill-rule="evenodd"/><path d="" stroke="none" fill="#2b5279" fill-rule="evenodd"/></svg>