<svg xmlns="http://www.w3.org/2000/svg" width="2048" height="2048" viewBox="0 0 2048 2048" version="1.1"><path d="M 997.500 463.627 C 994.750 463.810, 985.300 464.439, 976.500 465.024 C 959.034 466.185, 959.527 466.136, 936.745 469.006 C 839.168 481.301, 748.820 521.897, 685.931 581.704 C 659.045 607.272, 640.485 629.374, 621.483 658.448 C 593.695 700.967, 573.201 747.183, 559.601 798 C 555.821 812.124, 550.853 835.010, 551.198 836.707 C 551.364 837.524, 554.774 833.440, 558.775 827.632 C 569.527 812.024, 580.395 799.301, 597.355 782.469 C 621.074 758.928, 637.784 745.690, 665.441 728.529 C 678.395 720.490, 703.558 708.619, 719.500 703.025 C 737.545 696.693, 761.616 691.063, 777.500 689.458 C 781.350 689.069, 785.400 688.574, 786.500 688.358 C 791.151 687.445, 826.226 687.881, 834.500 688.954 C 882.059 695.123, 926.937 714.707, 978.377 751.740 C 983.395 755.352, 988.898 759.476, 990.607 760.904 C 992.316 762.332, 994.575 764.175, 995.628 765 C 1018.559 782.980, 1046.401 808.683, 1090.541 852.620 C 1149.428 911.236, 1155.423 916.471, 1189.004 938.583 C 1264.857 988.532, 1354.557 1020.234, 1442 1028 C 1448.325 1028.562, 1456.388 1029.277, 1459.917 1029.590 C 1468.600 1030.360, 1517.522 1030.301, 1529.146 1029.507 C 1575.569 1026.336, 1617.880 1018.645, 1664.134 1004.968 C 1749.691 979.669, 1821.008 925.264, 1880.611 839.827 C 1909.961 797.756, 1938.993 737.601, 1953.886 688 C 1958.522 672.562, 1963.357 653.023, 1962.703 652.370 C 1962.460 652.127, 1958.285 657.007, 1953.425 663.214 C 1948.566 669.421, 1944.344 674.725, 1944.043 675 C 1943.742 675.275, 1938.880 680.741, 1933.238 687.147 C 1916.722 705.898, 1889.578 730.985, 1873 742.819 C 1854.152 756.274, 1840.550 764.415, 1821.819 773.451 C 1796.933 785.456, 1769.956 793.560, 1741.500 797.577 C 1728.560 799.403, 1697.088 800.007, 1684 798.679 C 1645.088 794.731, 1607.315 783.473, 1569.302 764.493 C 1536.694 748.211, 1519.604 733.957, 1468.550 680.455 C 1446.893 657.760, 1405.654 616.286, 1395.999 607.492 C 1348.700 564.409, 1310.960 537.871, 1264.500 515.023 C 1208.672 487.568, 1151.127 472.024, 1081 465.456 C 1065.919 464.044, 1009.742 462.813, 997.500 463.627 M 533.500 1025.647 C 394.620 1030.761, 284.430 1074.890, 203.970 1157.617 C 151.506 1211.559, 114.188 1278.455, 92.446 1357.534 C 88.297 1372.624, 83 1396.341, 83 1399.825 C 83 1400.677, 85.620 1397.535, 88.823 1392.841 C 124.584 1340.435, 180.215 1294.426, 235.679 1271.385 C 259.891 1261.327, 274.410 1257.389, 309 1251.498 C 316.953 1250.144, 353.752 1249.759, 363.781 1250.925 C 430.236 1258.655, 497.389 1295.370, 570 1363.674 C 573.025 1366.519, 576.625 1369.810, 578 1370.987 C 579.375 1372.164, 598.950 1391.482, 621.500 1413.916 C 678.721 1470.843, 688.430 1479.331, 720.500 1500.465 C 752.183 1521.344, 793.429 1542.725, 825 1554.635 C 894.588 1580.888, 953.918 1592.209, 1023 1592.417 C 1049.224 1592.496, 1059.041 1592.083, 1081.413 1589.958 C 1134.543 1584.911, 1196.998 1569.811, 1237.759 1552.156 C 1250.138 1546.794, 1274.175 1534.246, 1283.205 1528.430 C 1287.217 1525.847, 1292.975 1522.133, 1296 1520.179 C 1301.151 1516.851, 1320.899 1502.321, 1322 1501.050 C 1322.275 1500.732, 1324.975 1498.454, 1328 1495.987 C 1336.532 1489.029, 1340.388 1485.484, 1354.637 1471.500 C 1393.223 1433.633, 1428.071 1384.163, 1453.962 1330.500 C 1467.372 1302.707, 1475.913 1281.551, 1483.852 1256.465 C 1489.395 1238.948, 1495.288 1216.363, 1494.742 1214.726 C 1494.551 1214.154, 1490.608 1218.594, 1485.979 1224.593 C 1481.349 1230.592, 1476.423 1236.826, 1475.031 1238.446 C 1437.669 1281.937, 1401.153 1311.771, 1359.500 1332.839 C 1318.946 1353.350, 1274.767 1363.370, 1232.500 1361.645 C 1187.515 1359.808, 1146.114 1348.874, 1102.256 1327.247 C 1069.364 1311.028, 1051.612 1296.057, 994.511 1236.388 C 957.077 1197.271, 934.357 1174.832, 914.635 1157.500 C 849.946 1100.651, 786.425 1065.697, 708.500 1044.070 C 678.339 1035.699, 640.279 1029.610, 599 1026.551 C 589.795 1025.869, 544.464 1025.243, 533.500 1025.647" stroke="none" fill="#07b6d5" fill-rule="evenodd"/><path d="" stroke="none" fill="#0cb4d4" fill-rule="evenodd"/><path d="" stroke="none" fill="#04b4d4" fill-rule="evenodd"/></svg>