<svg xmlns="http://www.w3.org/2000/svg" width="2400" height="823" viewBox="0 0 2400 823" version="1.1"><path d="M 823.500 202.728 C 777.138 204.048, 729.715 220.835, 696 247.861 C 673.501 265.896, 651.983 293.149, 640.794 317.782 C 638.080 323.757, 631 342.384, 631 343.550 C 631 343.797, 647.200 344, 667 344 L 703 344 703.004 338.750 C 703.010 331.460, 705.451 317.137, 708.507 306.470 C 718.838 270.403, 747.811 243.481, 786.723 233.789 C 793.859 232.012, 798.492 231.595, 811.500 231.560 C 830.670 231.509, 838.813 233.296, 854.500 240.996 C 866.952 247.109, 875.302 253.403, 886.325 264.987 C 901.866 281.318, 917.389 308.025, 926.438 334 L 930.096 344.500 973.548 344.229 C 1005.283 344.032, 1017 343.651, 1017 342.817 C 1017 340.715, 1009.933 320.963, 1006.432 313.282 C 990.448 278.207, 962.992 247.604, 930.167 228.276 C 899.399 210.158, 863.608 201.586, 823.500 202.728 M 2229 203.020 C 2196.422 205.250, 2164.487 216.656, 2136.773 235.959 C 2122.820 245.677, 2102.187 266.788, 2092.750 281 C 2084.121 293.995, 2076.543 309.224, 2072.099 322.500 L 2069.086 331.500 2100.195 331.764 C 2117.305 331.910, 2131.516 331.817, 2131.775 331.558 C 2132.034 331.299, 2132.653 327.025, 2133.151 322.061 C 2136.044 293.221, 2148.408 268.621, 2168.526 251.679 C 2177.473 244.145, 2194.414 235.772, 2206.443 232.939 C 2223.147 229.006, 2243.283 230.728, 2258.315 237.376 C 2283.158 248.363, 2302.842 272.795, 2304.699 294.952 C 2305.653 306.334, 2301.611 311.585, 2287.263 317.599 C 2283.543 319.158, 2280.275 320.673, 2280 320.967 C 2279.725 321.260, 2278.825 321.638, 2278 321.806 C 2277.175 321.974, 2271.196 324.224, 2264.714 326.806 L 2252.927 331.500 2286.214 332 L 2319.500 332.500 2353.216 318.950 C 2371.760 311.498, 2387.202 305.132, 2387.530 304.803 C 2388.348 303.985, 2383.546 290.275, 2378.933 280.258 C 2358.244 235.339, 2314.298 206.772, 2260.881 203.521 C 2241.739 202.355, 2239.277 202.317, 2229 203.020" stroke="none" fill="#dc4e3b" fill-rule="evenodd"/><path d="M 1875.500 28 L 1857.521 46 1883.772 46 L 1910.024 46 1909.762 292.250 L 1909.500 538.500 1906.818 543 C 1905.342 545.475, 1897.580 554.019, 1889.568 561.987 C 1881.555 569.955, 1875 576.817, 1875 577.237 C 1875 577.657, 1909.995 578, 1952.766 578 L 2030.531 578 2042.466 566.034 C 2049.030 559.453, 2054.172 553.838, 2053.891 553.558 C 2053.610 553.277, 2043.958 551.911, 2032.440 550.521 C 2020.923 549.132, 2009.430 547.518, 2006.901 546.934 C 2001.134 545.604, 1995.300 540.871, 1992.893 535.571 C 1991.111 531.647, 1991.043 522.780, 1991.022 290.718 C 1991.003 81.483, 1991.192 49.476, 1992.465 46.430 C 1993.293 44.447, 2000.967 35.772, 2010.128 26.462 L 2026.326 10 1959.902 10 L 1893.479 10 1875.500 28" stroke="none" fill="#009b57" fill-rule="evenodd"/><path d="M 1676.666 202.660 C 1676.575 202.748, 1671.111 203.131, 1664.524 203.511 C 1657.938 203.891, 1651.638 204.416, 1650.524 204.677 C 1648.431 205.169, 1645.818 205.537, 1637.832 206.464 C 1632.632 207.067, 1609.747 213.512, 1606.550 215.273 C 1605.422 215.894, 1603.661 216.542, 1602.635 216.712 C 1601.610 216.883, 1599.585 217.616, 1598.135 218.343 C 1596.686 219.069, 1592.803 220.976, 1589.507 222.581 C 1554.256 239.750, 1526.756 270.757, 1514.639 307 C 1503.688 339.752, 1505.011 379.875, 1517.944 407.284 C 1522.022 415.926, 1527.266 425.358, 1528.482 426.235 C 1529.146 426.714, 1529.152 426.986, 1528.500 427.016 C 1527.950 427.042, 1528.175 427.612, 1529 428.282 C 1529.825 428.952, 1531.139 430.738, 1531.919 432.250 L 1533.338 435 1578.322 435 L 1623.307 435 1619.653 431.452 C 1617.644 429.500, 1616 427.583, 1616 427.192 C 1616 426.800, 1614.978 425.359, 1613.728 423.990 C 1609.708 419.583, 1600.814 404.894, 1596.242 395.111 C 1578.550 357.250, 1573.296 310.965, 1583.176 280 C 1585.900 271.462, 1592.053 259.620, 1596.685 254 C 1606.288 242.348, 1620.838 233.409, 1635.134 230.380 C 1644.191 228.461, 1662.674 228.996, 1671.456 231.430 C 1679.497 233.660, 1691.065 239.571, 1699.748 245.886 C 1723.877 263.436, 1746.302 303.175, 1755.138 344.042 C 1757.070 352.973, 1757.407 357.567, 1757.450 375.500 C 1757.504 397.990, 1756.593 403.698, 1750.906 416.500 C 1749.685 419.250, 1748.869 421.576, 1749.093 421.669 C 1749.317 421.763, 1748.409 423, 1747.076 424.419 C 1745.742 425.839, 1745.067 427.014, 1745.576 427.030 C 1746.084 427.047, 1745.713 427.519, 1744.750 428.080 C 1743.787 428.641, 1743 429.587, 1743 430.182 C 1743 430.778, 1742.031 432.106, 1740.847 433.133 C 1738.735 434.965, 1739.106 435, 1760.409 435 L 1782.124 435 1789.210 427.928 C 1796.683 420.470, 1798.246 418.540, 1805.485 407.830 C 1814.214 394.916, 1820.579 377.972, 1823.050 361.070 C 1824.976 347.897, 1823.803 322.721, 1820.713 310.926 C 1814.415 286.889, 1802.992 268.012, 1782.196 247.275 L 1771.892 237 1794.302 237 L 1816.713 237 1832.886 220.250 L 1849.059 203.500 1832.779 203.255 C 1812.866 202.955, 1676.898 202.437, 1676.666 202.660" stroke="none" fill="#1d72ef" fill-rule="evenodd"/><path d="M 1369.641 342 C 1371.399 345.974, 1378.061 373.899, 1379.899 385 C 1383.318 405.649, 1384.299 420.070, 1383.708 441 C 1382.963 467.378, 1379.581 484.617, 1371.480 503.319 C 1362.044 525.102, 1343.933 543.693, 1322.499 553.596 C 1300.260 563.871, 1270.607 565.969, 1248.639 558.821 C 1213.151 547.275, 1183.642 514.951, 1164.632 466.802 C 1150.884 431.979, 1143.310 392.940, 1142.893 354.750 L 1142.743 341 1107.372 341 C 1076.652 341, 1071.984 341.197, 1071.875 342.500 C 1071.680 344.842, 1071.556 345.303, 1070.267 348.500 C 1068.072 353.944, 1064.974 371.812, 1063.859 385.465 C 1060.880 421.934, 1071.390 464.590, 1091.674 498.355 C 1127.575 558.114, 1193.116 591.677, 1268 588.648 C 1322.787 586.432, 1368.136 568.058, 1403.799 533.625 C 1434.288 504.188, 1453.463 467.648, 1461.126 424.381 C 1464.292 406.508, 1464.264 375.721, 1461.068 360 C 1459.894 354.225, 1458.674 348.038, 1458.357 346.250 C 1458.040 344.462, 1457.354 343, 1456.832 343 C 1456.309 343, 1456.154 342.559, 1456.487 342.021 C 1456.878 341.388, 1441.467 340.945, 1413.035 340.771 C 1374.178 340.532, 1369.056 340.677, 1369.641 342" stroke="none" fill="#ffbc09" fill-rule="evenodd"/><path d="M 1258.500 203.048 C 1186.112 207.204, 1125.397 242.512, 1090.377 300.818 C 1084.338 310.874, 1075 331.134, 1075 334.183 C 1075 334.962, 1074.460 336.140, 1073.800 336.800 C 1073.140 337.460, 1072.970 338, 1073.422 338 C 1073.875 338, 1073.685 338.675, 1073 339.500 C 1071.897 340.829, 1075.827 341, 1107.378 341 L 1143 341 1143.118 338.750 C 1143.184 337.512, 1143.187 336.173, 1143.126 335.773 C 1143.065 335.373, 1144.081 329.298, 1145.384 322.273 C 1150.442 294.996, 1159.153 277.718, 1175.925 261.694 C 1192.281 246.067, 1211.397 236.485, 1233.926 232.618 C 1290.084 222.979, 1335.962 256.075, 1364.067 326.500 L 1369.655 340.500 1413.233 340.760 L 1456.812 341.021 1454.824 334.395 C 1449.157 315.504, 1438.211 294.387, 1424.953 276.765 C 1416.819 265.954, 1399.733 248.668, 1389.312 240.706 C 1361.821 219.703, 1323.475 205.184, 1291 203.481 C 1285.225 203.178, 1278.475 202.789, 1276 202.616 C 1273.525 202.444, 1265.650 202.638, 1258.500 203.048" stroke="none" fill="#ffbc0b" fill-rule="evenodd"/><path d="M 2068.105 336.043 C 2067.439 338.266, 2066.690 341.303, 2066.439 342.793 C 2066.189 344.282, 2065.609 347.637, 2065.151 350.250 L 2064.317 355 2098.075 355 C 2124.098 355, 2131.970 355.286, 2132.428 356.250 C 2132.755 356.938, 2132.798 356.375, 2132.525 355 C 2132.251 353.625, 2132.021 347.887, 2132.014 342.250 L 2132 332 2100.658 332 L 2069.317 332 2068.105 336.043 M 2244.500 335.528 C 2232.794 340.420, 2230.288 341.413, 2222 344.451 C 2217.875 345.962, 2212.700 347.988, 2210.500 348.953 C 2208.300 349.918, 2204.352 351.513, 2201.728 352.498 C 2199.103 353.483, 2197.105 354.438, 2197.288 354.621 C 2197.471 354.804, 2212.516 354.986, 2230.722 355.026 L 2263.824 355.099 2270.162 352.431 C 2280.188 348.209, 2281.438 347.707, 2282.500 347.468 C 2283.050 347.345, 2285.300 346.442, 2287.500 345.462 C 2289.700 344.482, 2291.725 343.603, 2292 343.509 C 2292.275 343.414, 2294.525 342.426, 2297 341.313 C 2299.475 340.200, 2302.625 338.973, 2304 338.587 C 2307.501 337.603, 2314.400 334.680, 2315 333.928 C 2315.275 333.582, 2316.175 333.043, 2317 332.729 C 2317.825 332.415, 2303.650 332.164, 2285.500 332.171 L 2252.500 332.185 2244.500 335.528 M 630.923 344.250 C 630.881 344.387, 630.679 345.175, 630.473 346 C 630.267 346.825, 629.389 350.082, 628.522 353.237 C 627.654 356.392, 626.586 360.892, 626.148 363.237 L 625.352 367.500 663.926 367.500 L 702.500 367.500 702.500 355.751 L 702.500 344.001 666.750 344.001 C 647.087 344, 630.966 344.113, 630.923 344.250 M 930.776 344.558 C 930.457 344.876, 931.271 348.593, 932.583 352.818 C 933.896 357.043, 934.977 361.457, 934.985 362.628 C 934.993 363.798, 935.597 365.250, 936.326 365.856 C 937.233 366.609, 950.955 367.043, 979.723 367.228 L 1021.794 367.500 1021.277 364 C 1020.993 362.075, 1020.126 357.575, 1019.351 354 C 1018.576 350.425, 1017.800 346.825, 1017.626 346 C 1017.352 344.700, 1011.586 344.465, 974.332 344.240 C 950.694 344.096, 931.094 344.239, 930.776 344.558" stroke="none" fill="#de4733" fill-rule="evenodd"/><path d="M 2063.477 359.137 C 2062.156 366.956, 2061.501 388.011, 2062.167 401.247 C 2064.702 451.638, 2086.106 501.816, 2119.387 535.388 C 2146.861 563.101, 2180.052 579.962, 2220 586.498 C 2241.732 590.053, 2274.523 589.388, 2297.664 584.923 C 2326.855 579.289, 2356.306 563.728, 2379.800 541.524 C 2388.619 533.189, 2400.384 520.051, 2399.669 519.335 C 2399.501 519.167, 2392.542 522.167, 2384.206 526.003 C 2342.157 545.348, 2309.815 550.634, 2274.552 543.925 C 2223.087 534.134, 2178.678 496.366, 2154.907 442.173 C 2150.719 432.624, 2143.885 413.355, 2142.600 407.474 L 2141.939 404.448 2183.720 387.613 C 2206.699 378.354, 2228.425 369.447, 2232 367.819 C 2241.304 363.583, 2242.065 363.273, 2246.472 361.919 C 2248.657 361.247, 2251.056 360.087, 2251.803 359.340 C 2252.550 358.593, 2253.544 358.218, 2254.012 358.507 C 2254.479 358.796, 2255.149 358.568, 2255.500 358 C 2255.851 357.432, 2256.557 357.226, 2257.069 357.543 C 2257.581 357.859, 2258 357.656, 2258 357.090 C 2258 356.525, 2258.675 356.322, 2259.500 356.638 C 2260.325 356.955, 2261 356.689, 2261 356.047 C 2261 354.402, 2193.366 354.995, 2190.500 356.666 C 2187.485 358.424, 2181.840 360.761, 2178.750 361.531 C 2177.238 361.908, 2176 362.522, 2176 362.896 C 2176 363.269, 2174.994 363.650, 2173.765 363.743 C 2172.535 363.835, 2171.373 364.381, 2171.181 364.956 C 2170.990 365.530, 2170.075 366, 2169.149 366 C 2168.223 366, 2160.385 368.903, 2151.732 372.452 C 2143.080 376, 2135.992 378.588, 2135.983 378.202 C 2135.973 377.816, 2135.359 374.575, 2134.619 371 C 2133.878 367.425, 2133.215 363.825, 2133.146 363 C 2133.076 362.175, 2132.827 360.375, 2132.593 359 C 2132.358 357.625, 2132.129 356.163, 2132.083 355.750 C 2132.037 355.337, 2116.740 355, 2098.088 355 L 2064.176 355 2063.477 359.137 M 936 367.583 C 936 368.179, 936.309 368.976, 936.687 369.354 C 937.065 369.732, 937.465 370.819, 937.576 371.770 C 938.398 378.816, 939.306 384.621, 939.689 385.270 C 939.939 385.694, 940.344 388.169, 940.589 390.770 C 940.834 393.372, 941.450 398.875, 941.957 403 C 944.767 425.861, 944.163 452.549, 940.372 473 C 935.249 500.642, 922.008 524.863, 903.796 539.902 C 890.703 550.714, 871.574 559.177, 853.785 562.027 C 841.590 563.981, 821.548 562.837, 810.549 559.560 C 777.198 549.621, 746.886 519.218, 728.521 477.283 C 715.970 448.624, 705.933 409.301, 703.435 379 C 703.050 374.325, 702.639 369.825, 702.522 369 C 702.337 367.696, 697.281 367.500, 663.905 367.500 L 625.500 367.500 624.766 373 C 623.203 384.717, 622.758 407.829, 623.907 417.604 C 628.246 454.502, 642.242 488.940, 664.505 517.500 C 709.076 574.677, 785.552 600.199, 865 584.409 C 958.713 565.783, 1024.364 485.148, 1022.874 390.500 C 1022.727 381.150, 1022.339 372.150, 1022.013 370.500 L 1021.419 367.500 978.709 367 C 948.404 366.645, 935.999 366.815, 936 367.583" stroke="none" fill="#db4632" fill-rule="evenodd"/><path d="M 304 0.276 C 303.725 0.543, 299 1.050, 293.500 1.402 C 281.751 2.153, 276.158 2.778, 270 4.028 C 267.525 4.530, 263.250 5.184, 260.500 5.481 C 256.125 5.954, 242.336 8.619, 235 10.410 C 233.625 10.746, 231.375 11.234, 230 11.495 C 221.547 13.098, 187.431 24.289, 186 25.927 C 185.725 26.242, 184.825 26.622, 184 26.771 C 181.011 27.310, 166 34.281, 166 35.129 C 166 35.608, 165.312 36, 164.471 36 C 162.394 36, 152.558 41.036, 140.500 48.275 C 122.997 58.781, 94.933 80.267, 93.492 84.265 C 93.142 85.235, 92.507 85.813, 92.080 85.550 C 91.251 85.037, 76.509 99.974, 68.907 109.029 C 33.872 150.759, 10.736 201.573, 2.447 255 C 0.229 269.298, -0.584 307.196, 0.940 325.292 C 6.941 396.535, 33.956 458.715, 79.305 505.661 C 127.974 556.044, 190.304 585.309, 270 595.197 C 286.124 597.198, 349.409 596.860, 374 594.641 C 410.689 591.332, 446.880 585.902, 481.521 578.508 C 498.261 574.936, 548.372 562.546, 552.750 560.897 L 555 560.050 555 482.426 C 555 411.649, 555.149 404.480, 556.690 401.151 C 557.620 399.143, 565.578 390.188, 574.376 381.250 L 590.370 365 497.924 365 L 405.479 365 388 382.500 L 370.521 400 422.261 400 L 474 400 474 472.364 L 474 544.727 464.750 547.303 C 438.552 554.598, 410.202 558.697, 377.500 559.920 C 323.863 561.925, 283.259 554.156, 242.500 534.088 C 190.769 508.617, 149.255 466.920, 122.162 413.220 C 98.649 366.616, 87.949 321.722, 87.959 269.711 C 87.967 226.079, 96.600 186.216, 113.575 151.431 C 116.009 146.444, 118 141.869, 118 141.265 C 118 140.661, 118.375 140.017, 118.832 139.833 C 119.938 139.391, 128.509 124.711, 128.223 123.750 C 128.100 123.338, 128.444 123, 128.987 123 C 129.531 123, 131.066 121.272, 132.399 119.160 C 133.733 117.048, 135.426 114.674, 136.162 113.886 C 136.898 113.097, 139.505 109.988, 141.956 106.976 C 145.873 102.163, 157.733 89.287, 160.500 86.844 C 177.128 72.160, 190.163 63.273, 208 54.459 C 217.832 49.600, 234.284 42.742, 235.736 42.896 C 235.866 42.910, 237.891 42.228, 240.236 41.381 C 242.581 40.535, 245.625 39.637, 247 39.387 C 248.375 39.137, 251.750 38.323, 254.500 37.579 C 260.755 35.886, 280.260 33.028, 290 32.377 C 303.150 31.497, 333.726 32.644, 346 34.476 C 358.943 36.409, 366.646 38.108, 381 42.194 C 391.664 45.230, 399.280 47.999, 404.252 50.649 C 405.766 51.455, 407.415 51.862, 407.917 51.552 C 408.419 51.241, 408.980 51.357, 409.165 51.809 C 409.349 52.261, 413.836 54.902, 419.136 57.679 C 429.193 62.949, 447.878 74.842, 451.436 78.239 C 452.571 79.322, 454.625 80.938, 456 81.828 C 458.820 83.655, 461.213 85.659, 468.732 92.488 L 473.964 97.240 474.232 120.870 L 474.500 144.500 513.733 105.500 C 535.312 84.050, 552.974 66.208, 552.983 65.851 C 552.998 65.272, 537.792 55.488, 534 53.637 C 533.175 53.234, 530.700 51.799, 528.500 50.448 C 522.470 46.746, 491.596 31.692, 482.500 28.020 C 472.712 24.068, 442.806 14.247, 438 13.407 C 436.075 13.070, 432.250 12.169, 429.500 11.404 C 422.590 9.482, 400.764 5.326, 393.500 4.549 C 390.200 4.196, 386.825 3.715, 386 3.481 C 385.175 3.246, 381.125 2.794, 377 2.475 C 372.875 2.157, 367.250 1.660, 364.500 1.372 C 357.522 0.640, 304.611 -0.319, 304 0.276 M 1764.932 202.750 L 1849.363 203.011 1846.432 206.256 L 1843.500 209.500 1846.750 206.563 C 1848.537 204.948, 1850 203.260, 1850 202.813 C 1850 202.366, 1811.862 202.110, 1765.250 202.244 L 1680.500 202.488 1764.932 202.750 M 1535.595 437.250 C 1542.235 445.092, 1553.377 455.999, 1554.750 455.999 C 1555.438 456, 1556 456.421, 1556 456.937 C 1556 458.660, 1573.074 469.258, 1582.169 473.179 C 1601.790 481.638, 1620.244 485, 1647.051 485 C 1655.823 485, 1662.994 485.337, 1662.987 485.750 C 1662.980 486.163, 1662.109 489.261, 1661.050 492.636 C 1656.395 507.482, 1656.414 524.013, 1661.100 536.538 C 1663.451 542.821, 1669.552 552.517, 1675.737 559.798 C 1678.212 562.712, 1679.968 565.365, 1679.639 565.694 C 1679.310 566.023, 1674.419 566.668, 1668.770 567.127 C 1615.742 571.438, 1568.386 583.666, 1535.013 601.666 C 1506.404 617.097, 1483.737 639.718, 1472.908 663.646 C 1465.882 679.169, 1462.548 701.894, 1464.886 718.322 C 1468.185 741.492, 1481.704 765.377, 1500.487 781.216 C 1535.129 810.430, 1585.098 824.447, 1648.388 822.706 C 1686.363 821.662, 1714.763 816.503, 1743.773 805.381 C 1801.263 783.339, 1839.509 742.910, 1850.087 693 C 1853.102 678.777, 1853.181 656.781, 1850.266 642.987 C 1848.072 632.601, 1843.574 620.495, 1838.826 612.196 C 1827.126 591.746, 1803.696 568.527, 1766 540.025 C 1750.051 527.966, 1740.597 518.506, 1737.152 511.157 C 1734.882 506.315, 1734.506 504.204, 1734.543 496.500 C 1734.621 480.434, 1740.535 470.399, 1758.691 455.531 C 1764.636 450.662, 1770.625 445.623, 1772 444.333 C 1773.375 443.043, 1776.300 440.426, 1778.500 438.517 L 1782.500 435.046 1761.108 435.023 L 1739.717 435 1736.850 438 C 1735.273 439.650, 1733.771 441, 1733.512 441 C 1733.253 441, 1730.669 442.799, 1727.770 444.998 C 1709.988 458.487, 1684.462 463.502, 1662.099 457.899 C 1654.223 455.927, 1643.570 451.547, 1640.552 449.043 C 1639.872 448.479, 1639.020 448.313, 1638.658 448.675 C 1638.296 449.037, 1638 448.845, 1638 448.248 C 1638 447.651, 1636.421 446.187, 1634.492 444.995 C 1632.562 443.802, 1629.204 441.065, 1627.031 438.913 L 1623.078 435 1578.384 435 L 1533.690 435 1535.595 437.250 M 1665.500 593.123 C 1616.366 597.781, 1581.131 610.872, 1560.109 632.279 C 1552.370 640.160, 1548.806 645.233, 1544.373 654.681 C 1539.291 665.512, 1537.659 673.588, 1537.642 688 C 1537.624 703.397, 1539.332 710.798, 1546.063 724.500 C 1561.647 756.222, 1597.298 777.315, 1647.683 784.627 C 1665.184 787.167, 1695.781 786.951, 1711.111 784.180 C 1739.227 779.098, 1763.332 767.297, 1777.918 751.473 C 1793.152 734.946, 1800.682 712.085, 1798 690.504 C 1794.360 661.208, 1779.249 642.858, 1727.298 604.651 L 1710.096 592 1692.298 592.135 C 1682.509 592.209, 1670.450 592.654, 1665.500 593.123" stroke="none" fill="#166ced" fill-rule="evenodd"/><path d="" stroke="none" fill="#e57025" fill-rule="evenodd"/></svg>