<svg xmlns="http://www.w3.org/2000/svg" width="2560" height="557" viewBox="0 0 2560 557" version="1.1"><path d="" stroke="none" fill="#48b44c" fill-rule="evenodd"/><path d="M 572.927 3.041 C 550.733 6.397, 533.253 21.952, 526.340 44.500 C 524.585 50.222, 524.500 58.119, 524.500 215 C 524.500 371.756, 524.586 379.780, 526.335 385.448 C 529.543 395.841, 533.895 403.117, 541.389 410.611 C 552.301 421.523, 564.941 427, 579.210 427 L 586 427 586 362.500 L 586 298 612.750 298.031 C 643.163 298.066, 651.923 298.905, 659.888 302.544 C 669.395 306.888, 675.139 313.652, 679.104 325.171 C 681.017 330.727, 681.373 334.613, 682.023 357 C 682.457 371.938, 683.267 384.157, 683.980 386.500 C 691.062 409.792, 713.211 426.948, 736.250 426.988 L 743 427 742.994 377.750 C 742.990 339.535, 742.659 326.315, 741.518 318.748 C 738.082 295.948, 729.036 279.070, 714.089 267.569 C 709.290 263.875, 693.450 255, 691.658 255 C 691.368 255, 690.046 254.588, 688.722 254.084 C 686.365 253.188, 686.461 253.015, 693.140 246.066 C 702.321 236.513, 712.637 220.594, 738.541 176 C 750.522 155.375, 760.979 137.488, 761.778 136.250 L 763.230 134 728.243 134 L 693.257 134 668.916 175.204 C 639.508 224.987, 638.154 227.047, 632.320 230.912 C 623.248 236.920, 617.976 238.254, 601.254 238.771 L 586.008 239.243 585.754 120.871 L 585.500 2.500 582 2.349 C 580.075 2.266, 575.992 2.578, 572.927 3.041 M 2051.500 3.043 C 2034.430 5.288, 2018.244 16.596, 2010.140 31.938 C 2002.965 45.522, 2003.565 34.320, 2002.913 167 C 2002.273 297.390, 2002.516 292.002, 1996.390 311.984 C 1983.486 354.079, 1947.608 378.704, 1906 374.022 C 1863.772 369.271, 1835.382 342.675, 1827.459 300.445 C 1825.137 288.069, 1825.848 262.834, 1828.830 251.758 C 1837.602 219.176, 1858.120 197.910, 1888.500 189.915 C 1898.799 187.205, 1918.182 186.271, 1928.761 187.977 C 1944.387 190.496, 1966.104 199.502, 1983.163 210.537 C 1986.958 212.991, 1990.273 215, 1990.531 215 C 1990.789 215, 1991 200.156, 1991 182.013 L 1991 149.025 1984.250 145.637 C 1948.689 127.790, 1902.665 122.977, 1867 133.376 C 1829.318 144.362, 1798.474 170.264, 1780.517 206 C 1767.821 231.268, 1762.646 258.475, 1764.980 287.694 C 1768.354 329.952, 1782.004 362.284, 1807.831 389.192 C 1828.839 411.079, 1850.947 423.359, 1881.741 430.245 C 1890.221 432.141, 1894.580 432.432, 1915 432.464 C 1936.030 432.496, 1939.591 432.256, 1948.881 430.176 C 1968.716 425.735, 1983.777 419.348, 1999 408.922 C 2035.181 384.143, 2057.665 344.363, 2062.945 295.789 C 2063.635 289.441, 2064 236.903, 2064 144.039 L 2064 2 2060.750 2.127 C 2058.963 2.197, 2054.800 2.609, 2051.500 3.043 M 2156.024 39.603 C 2141.837 43.415, 2133.469 52.817, 2131.159 67.538 C 2128.463 84.716, 2136.458 100.257, 2151.580 107.231 C 2155.707 109.134, 2158.192 109.499, 2167 109.496 C 2179.831 109.492, 2185.531 107.347, 2192.495 99.901 C 2199.808 92.084, 2201.436 87.477, 2201.470 74.500 C 2201.495 65.332, 2201.144 62.730, 2199.363 58.878 C 2192.025 43.009, 2173.691 34.855, 2156.024 39.603 M 43.217 62.449 C 34.062 64.666, 23.590 70.551, 16.675 77.365 C 9.534 84.400, 2.934 96.185, 1.049 105.263 C 0.261 109.061, 0.023 145.712, 0.229 231.557 L 0.519 352.500 3.172 362.133 C 12.103 394.558, 29.330 413.983, 57 422.828 C 68.216 426.413, 74.364 426.845, 119 427.177 L 162.500 427.500 162.765 398.250 L 163.030 369 127.765 368.969 C 87.457 368.934, 79.927 368.276, 72.593 364.150 C 68.509 361.853, 66.906 360.132, 64.500 355.464 L 61.500 349.643 61.226 271.322 L 60.953 193 111.976 193 L 163 193 163 163.500 L 163 134 112 134 L 61 134 61 97.500 L 61 61 54.750 61.085 C 51.313 61.132, 46.123 61.746, 43.217 62.449 M 1566.658 128.503 C 1548.339 131.489, 1530.197 137.416, 1517 144.724 C 1475.413 167.756, 1447.262 206.680, 1437.844 254.172 C 1434.907 268.981, 1434.724 292.792, 1437.438 307 C 1448.539 365.120, 1488.761 409.455, 1547.500 428.316 C 1590.988 442.279, 1639.521 436.428, 1674.583 412.995 C 1685.757 405.527, 1700.132 390.687, 1708.839 377.631 C 1712.826 371.653, 1715.955 366.376, 1715.794 365.904 C 1715.632 365.432, 1704.497 357.013, 1691.049 347.195 L 1666.597 329.343 1653.549 342.480 C 1618.786 377.478, 1588.619 384.347, 1550.225 366.007 C 1523.143 353.070, 1505.847 333.493, 1500.143 309.319 L 1498.298 301.500 1619.899 301 L 1741.500 300.500 1741.821 290.500 C 1742.488 269.719, 1738.364 242.259, 1731.971 224.920 C 1718.758 189.086, 1692.979 161.811, 1654.500 142.955 C 1631.835 131.849, 1616.572 128.066, 1592 127.465 C 1580.609 127.186, 1572.762 127.508, 1566.658 128.503 M 314 128.695 C 251.814 135.355, 200.188 180.071, 184.977 240.452 C 180.779 257.116, 179.628 268.825, 180.311 287.896 C 181.784 328.988, 195.122 360.301, 222.951 388 C 245.103 410.048, 267.559 422.690, 297 429.686 C 312.683 433.412, 341.503 434.077, 358.871 431.113 C 413.284 421.826, 459.303 383.005, 476.362 332 C 482.183 314.595, 483.447 305.378, 483.425 280.500 C 483.408 260.608, 483.112 256.181, 481.234 247.741 C 474.869 219.131, 463.237 196.779, 444.500 177.150 C 418.225 149.625, 389.815 134.577, 354.500 129.480 C 345.469 128.177, 322.922 127.739, 314 128.695 M 908 128.695 C 845.814 135.355, 794.188 180.071, 778.977 240.452 C 774.779 257.116, 773.628 268.825, 774.311 287.896 C 775.785 328.999, 789.183 360.463, 816.938 388 C 839.229 410.116, 861.576 422.694, 891 429.686 C 906.683 433.412, 935.503 434.077, 952.871 431.113 C 1007.283 421.826, 1053.311 382.998, 1070.361 332 C 1076.945 312.308, 1079.751 282.328, 1077.069 260.335 C 1073.017 227.117, 1060.320 200.072, 1037.606 176.282 C 1012.490 149.976, 982.927 134.449, 948.500 129.480 C 939.469 128.177, 916.922 127.739, 908 128.695 M 1234.658 129.569 C 1174.489 138.928, 1132.281 179.305, 1116.606 242.500 C 1111.622 262.595, 1111.642 262.062, 1111.251 383 C 1110.872 500.419, 1111.039 506.470, 1114.969 517.653 C 1122.240 538.340, 1142.905 553.450, 1165 554.234 L 1172.500 554.500 1173.038 413 L 1173.576 271.500 1175.857 261.516 C 1185.137 220.878, 1208.338 195.227, 1241.950 188.443 C 1254.352 185.940, 1275.282 186.847, 1287.288 190.407 C 1319.295 199.898, 1339.629 222.436, 1347.738 257.407 C 1348.945 262.610, 1349.371 269.162, 1349.336 282 C 1349.295 297.658, 1349.011 300.552, 1346.641 309.491 C 1338.253 341.135, 1318.649 362.007, 1289.307 370.535 C 1272.664 375.372, 1251.391 375.347, 1234.418 370.470 C 1223.905 367.449, 1204.531 358.336, 1193.285 351.122 C 1188.893 348.305, 1185.002 346, 1184.636 346 C 1184.271 346, 1184.091 360.693, 1184.236 378.651 L 1184.500 411.301 1190.500 414.649 C 1204.257 422.326, 1224.658 428.945, 1242.500 431.520 C 1255.997 433.468, 1281.163 433.417, 1293.074 431.418 C 1341.191 423.341, 1384.686 386.537, 1402.334 338.967 C 1407.678 324.560, 1409.997 311.914, 1410.670 293.500 C 1412.088 254.706, 1403.096 220.174, 1384.328 192.340 C 1360.181 156.528, 1323.996 134.275, 1281.500 129.101 C 1269.446 127.634, 1245.567 127.872, 1234.658 129.569 M 2389 129.090 C 2353.515 133.658, 2326.043 146.782, 2302.465 170.432 C 2282.013 190.946, 2270.332 212.905, 2263.863 243 C 2261.902 252.119, 2261.599 256.524, 2261.553 276.500 C 2261.506 296.715, 2261.780 300.884, 2263.814 310.926 C 2275.103 366.670, 2311.291 410.209, 2359.372 425.894 C 2377.517 431.813, 2382.519 432.507, 2406.500 432.426 C 2427.065 432.357, 2429.152 432.178, 2438.500 429.677 C 2450.767 426.395, 2465.481 419.152, 2477.750 410.357 L 2487 403.727 2487 365.163 C 2487 343.953, 2486.628 327.028, 2486.174 327.550 C 2485.719 328.073, 2481.918 332.598, 2477.728 337.606 C 2457.898 361.305, 2440.696 371.932, 2419 373.886 C 2365.138 378.739, 2322 337.430, 2322 281 C 2322 243.819, 2340.884 210.746, 2370.500 196.056 C 2384.913 188.906, 2391.870 187.495, 2412.500 187.535 C 2433.575 187.575, 2441.410 189.172, 2456.652 196.531 C 2472.293 204.082, 2484.169 215.182, 2491.466 229.068 C 2498.554 242.556, 2498.349 240.232, 2498.957 314 L 2499.505 380.500 2502.272 388.328 C 2510.337 411.150, 2528.931 425.392, 2553.250 427.375 L 2560 427.925 2560 339.841 C 2560 265.435, 2559.759 250.136, 2558.450 241.317 C 2549.082 178.231, 2504.187 137.385, 2435.026 129.024 C 2425.191 127.835, 2398.451 127.874, 2389 129.090 M 2136 255.340 C 2136 373.493, 2136.053 376.886, 2138.004 384.517 C 2142.869 403.539, 2155.851 417.697, 2174.324 424.127 C 2180.369 426.232, 2184.389 426.977, 2189.750 426.987 L 2197 427 2197 280.500 L 2197 134 2166.500 134 L 2136 134 2136 255.340 M 1574 187.452 C 1547.213 193.190, 1523.209 212.907, 1509.111 240.750 L 1506.959 245 1589.965 245 L 1672.971 245 1670.933 239.830 C 1663.267 220.382, 1654.489 210.276, 1636 199.614 C 1627.663 194.807, 1618.279 190.866, 1609.387 188.439 C 1601.275 186.224, 1582.211 185.692, 1574 187.452 M 314.660 187.990 C 274.339 195.240, 247.879 226.005, 244.035 270.106 C 240.538 310.222, 256.699 345.469, 286.638 363.022 C 313.024 378.491, 352.135 378.199, 378.263 362.338 C 392.090 353.944, 402.387 342.348, 409.964 326.637 C 417.840 310.306, 419.513 302.062, 419.429 280 C 419.365 263.347, 419.098 260.534, 416.754 251.818 C 408.369 220.643, 385.723 197.420, 356 189.514 C 348.556 187.534, 322.530 186.574, 314.660 187.990 M 908.660 187.990 C 889.715 191.396, 874.329 199.548, 861.826 212.801 C 840.077 235.856, 831.903 274.093, 841.099 309.756 C 845.586 327.158, 856.877 345.090, 870.204 355.979 C 895.483 376.635, 935.670 380.520, 966.500 365.289 C 991.748 352.814, 1008.942 327.372, 1013.077 296.365 C 1014.676 284.373, 1013.710 263.875, 1011.034 253 C 1008.274 241.787, 1000.515 226.134, 993.567 217.762 C 982.367 204.265, 966.072 193.689, 950 189.485 C 942.543 187.535, 916.441 186.590, 908.660 187.990" stroke="none" fill="#44b44c" fill-rule="evenodd"/></svg>